<?xml version="1.0" encoding="UTF-8"?>
<svg version="1.1" xmlns="http://www.w3.org/2000/svg" width="2500" height="1667">
<path d="M0 0 C825 0 1650 0 2500 0 C2500 550.11 2500 1100.22 2500 1667 C1675 1667 850 1667 0 1667 C0 1116.89 0 566.78 0 0 Z " fill="#FEFEFE" transform="translate(0,0)"/>
<path d="M0 0 C2.49252335 2.26675625 3.99078887 4.53887563 5.56640625 7.5078125 C6.0464209 8.40282471 6.52643555 9.29783691 7.02099609 10.2199707 C7.52969238 11.17863037 8.03838867 12.13729004 8.5625 13.125 C12.21929238 19.92650153 15.91377787 26.68324672 19.875 33.3125 C23.99657822 40.22519385 27.95460825 47.22135839 31.875 54.25 C36.17470272 61.95710153 40.48994534 69.65358983 44.875 77.3125 C45.35324219 78.1478125 45.83148437 78.983125 46.32421875 79.84375 C47.88210968 82.56290345 49.44101498 85.28147369 51 88 C53.62677914 92.58231646 56.25208512 97.16547084 58.875 101.75 C59.21380188 102.34214294 59.55260376 102.93428589 59.90167236 103.54437256 C65.31985448 113.0183792 70.67204316 122.52787168 75.99169922 132.05761719 C80.10196189 139.415046 84.26858061 146.73826203 88.46191406 154.04858398 C92.35222505 160.84118026 96.18286874 167.6660533 100 174.5 C105.78366566 184.85204944 111.6370381 195.1618908 117.53662109 205.44824219 C124.78068731 218.08003733 131.98746926 230.73213929 139.14428711 243.41357422 C142.74324863 249.78703718 146.36346638 256.14790814 150 262.5 C156.93183441 274.61045004 163.78782744 286.76347344 170.64550781 298.91601562 C178.99988793 313.71860714 187.40492637 328.49115407 195.85595703 343.23876953 C203.63133159 356.80839582 211.36561395 370.39763547 218.98950195 384.05322266 C223.12640566 391.45747099 227.31456451 398.83071986 231.53222656 406.18920898 C235.76785353 413.58188174 239.96012847 420.99856152 244.14697266 428.41894531 C247.72184509 434.75035872 251.32170403 441.06688403 254.9375 447.375 C259.30324775 454.9916062 263.60066966 462.64426617 267.875 470.3125 C272.47167305 478.55515904 277.15624566 486.73810087 281.9375 494.875 C287.14918025 503.7539941 292.23984389 512.69379065 297.25 521.6875 C297.57668671 522.27166687 297.90337341 522.85583374 298.23995972 523.45770264 C299.16853179 525.11967389 300.09217461 526.78439626 301.015625 528.44921875 C301.54446289 529.40143311 302.07330078 530.35364746 302.61816406 531.3347168 C303.9200605 533.84581281 305.00096744 536.35580189 306 539 C306.66 539 307.32 539 308 539 C308.11811035 538.28924316 308.2362207 537.57848633 308.35791016 536.84619141 C309.03607116 533.84010737 310.03913749 531.2836205 311.2734375 528.4609375 C311.75901123 527.34468994 312.24458496 526.22844238 312.74487305 525.07836914 C313.28811176 523.84385249 313.83149227 522.60939824 314.375 521.375 C314.94540691 520.06972797 315.51546504 518.76430348 316.08520508 517.45874023 C322.07692609 503.7501919 328.14184609 490.07339785 334.1965332 476.39257812 C338.55067931 466.55331082 342.88755767 456.70758812 347.1628418 446.83374023 C351.24374078 437.41701184 355.3725963 428.02141128 359.5 418.625 C359.88319397 417.75260681 360.26638794 416.88021362 360.66119385 415.98138428 C362.23663304 412.39486529 363.81219246 408.80839915 365.38793945 405.22201538 C368.18568651 398.85430048 370.9819895 392.48595315 373.77734375 386.1171875 C374.3599144 384.78991135 374.3599144 384.78991135 374.95425415 383.43582153 C375.33995575 382.55707367 375.72565735 381.67832581 376.12304688 380.77294922 C381.99467946 367.39555098 387.86896693 354.01934388 393.75537109 340.6484375 C400.39418693 325.56496832 407.01356394 310.47294866 413.63720703 295.3828125 C416.67998171 288.45077107 419.72326182 281.51895157 422.76660156 274.5871582 C424.2569741 271.19252483 425.7471981 267.7978263 427.23730469 264.40307617 C430.65746675 256.61154827 434.07846998 248.82039402 437.50305176 241.0308075 C446.72863849 220.04600674 455.90631314 199.04236844 465 178 C475.23 178 485.46 178 496 178 C490.09605552 192.43186429 483.9507381 206.71519066 477.5625 220.9375 C477.0102475 222.16712967 477.0102475 222.16712967 476.44683838 223.42160034 C474.98173978 226.68294336 473.51623701 229.94410426 472.05007935 233.20497131 C465.49331473 247.7939761 458.96804026 262.40219446 452.89819336 277.2019043 C450.94665138 281.91481942 448.82991258 286.54037778 446.66015625 291.15625 C443.5021203 297.87646579 440.47815339 304.64777608 437.51989746 311.45870972 C436.33426053 314.1882045 435.1440345 316.9156923 433.95419312 319.64335632 C433.31061799 321.11878228 432.66724943 322.59429837 432.02407837 324.06990051 C428.11635813 333.03321348 424.18260396 341.98508449 420.25 350.9375 C419.48524746 352.67886372 418.72051779 354.42023748 417.95581055 356.16162109 C416.40878275 359.68444768 414.86165469 363.2072302 413.31445312 366.72998047 C409.91586732 374.46828518 406.51860083 382.20716906 403.12124634 389.9460144 C401.99717098 392.50644397 400.8729905 395.06682735 399.7487793 397.62719727 C396.3814878 405.29630527 393.01470428 412.96563406 389.65066528 420.63616943 C381.23129545 439.83352118 372.78916873 459.02051398 364.30957031 478.19134521 C357.61552058 493.32618188 350.9515841 508.47403993 344.31469727 523.6340332 C340.99027717 531.22304028 337.65149839 538.8041617 334.2421875 546.35546875 C333.67243678 547.6210902 333.10269367 548.88671508 332.53295898 550.15234375 C331.50742386 552.42468477 330.47615567 554.69445179 329.43774414 556.9609375 C328.99293701 557.94707031 328.54812988 558.93320312 328.08984375 559.94921875 C327.70691162 560.78799561 327.32397949 561.62677246 326.92944336 562.4909668 C325.42862372 566.5424308 324.42887264 569.53488758 326.04125977 573.67114258 C326.58580811 574.56986084 327.13035645 575.4685791 327.69140625 576.39453125 C328.29944092 577.41973877 328.90747559 578.44494629 329.53393555 579.5012207 C330.20336182 580.59394287 330.87278809 581.68666504 331.5625 582.8125 C332.25303193 583.96781658 332.94156043 585.12433274 333.62817383 586.28198242 C334.69037384 588.07273054 335.75356991 589.86277019 336.82273865 591.64936829 C340.40194427 597.6347617 343.80357677 603.71486006 347.1875 609.8125 C353.3814595 620.91974224 359.67363221 631.96779357 366 643 C368.71009367 647.72816037 371.41872625 652.45715212 374.125 657.1875 C374.47024719 657.79092224 374.81549438 658.39434448 375.17120361 659.01605225 C379.6443335 666.83765289 384.07102818 674.68253298 388.42773438 682.56958008 C392.96053715 690.76313018 397.62539375 698.88070454 402.28271484 707.00390625 C410.71547104 721.71627247 419.13172787 736.43834748 427.5 751.1875 C428.0580835 752.1676709 428.61616699 753.1478418 429.19116211 754.15771484 C429.69526611 755.04797363 430.19937012 755.93823242 430.71875 756.85546875 C431.16154297 757.63559326 431.60433594 758.41571777 432.06054688 759.21948242 C433 761 433 761 433 762 C422.49147302 763.47395271 411.35281573 764.91223362 401 762 C394.25208724 756.89197012 391.32240296 748.76203147 388.27490234 741.10693359 C386.51767291 736.82457018 384.27105543 732.92460689 381.9375 728.9375 C381.13790603 727.49701637 380.3423932 726.05426051 379.55078125 724.609375 C372.52253442 711.87328919 365.29377483 699.24657656 358.0625 686.625 C353.6611635 678.94273356 349.31797104 671.22940998 345 663.5 C339.27784907 653.25933643 333.48830516 643.05972885 327.65283203 632.88330078 C324.45197674 627.29953402 321.25674695 621.71254895 318.0625 616.125 C317.72175446 615.52896973 317.38100891 614.93293945 317.02993774 614.31884766 C310.84436746 603.49680113 304.70038047 592.65159329 298.57666016 581.79443359 C295.88735486 577.02797519 293.19345945 572.26411179 290.5 567.5 C287.28297545 561.80982167 284.06671722 556.11922177 280.85546875 550.42578125 C274.9347469 539.93262074 268.98324371 529.4576076 263 519 C256.48844123 507.61899502 250.01826646 496.21519494 243.57666016 484.79443359 C240.88735486 480.02797519 238.19345945 475.26411179 235.5 470.5 C232.28297545 464.80982167 229.06671722 459.11922177 225.85546875 453.42578125 C219.9347469 442.93262074 213.98324371 432.4576076 208 422 C201.48844123 410.61899502 195.01826646 399.21519494 188.57666016 387.79443359 C185.88735485 383.02797517 183.19344649 378.26411913 180.5 373.5 C177.23662041 367.72749863 173.97398969 361.95458048 170.71484375 356.1796875 C165.03780334 346.12340903 159.33669158 336.08191877 153.59399414 326.06298828 C149.64025964 319.15157245 145.75361645 312.20378652 141.875 305.25 C137.99031218 298.28794143 134.07537797 291.35231566 130 284.5 C124.05783129 274.50573737 118.44050816 264.32990513 112.77587891 254.17675781 C109.98989147 249.19308053 107.18483136 244.22026444 104.375 239.25 C103.83955566 238.30286133 103.30411133 237.35572266 102.75244141 236.37988281 C98.72002395 229.25549631 94.65581597 222.14959076 90.58496094 215.04711914 C86.71756544 208.2867552 82.91693253 201.49041065 79.125 194.6875 C74.55134396 186.48494533 69.88751698 178.34425226 65.125 170.25 C59.47842038 160.64937623 54.06531636 150.93557865 48.71252441 141.16967773 C44.49594229 133.47958531 40.21407633 125.84427509 35.71899414 118.31323242 C32.09955049 112.22772813 28.63893353 106.05705747 25.1875 99.875 C24.60049316 98.82401123 24.01348633 97.77302246 23.40869141 96.69018555 C22.21217047 94.54700444 21.01588324 92.40369283 19.81982422 90.26025391 C16.80376784 84.85692458 13.78163858 79.45710234 10.75 74.0625 C10.20110107 73.07942871 9.65220215 72.09635742 9.08666992 71.08349609 C8.5785376 70.18066895 8.07040527 69.2778418 7.546875 68.34765625 C7.10182617 67.55367432 6.65677734 66.75969238 6.19824219 65.94165039 C5.02132323 63.867728 5.02132323 63.867728 3 62 C2.64284912 62.83023682 2.28569824 63.66047363 1.91772461 64.51586914 C0.55706545 67.67583399 -0.80566226 70.83489143 -2.16967773 73.9934082 C-2.7531562 75.34560399 -3.33587139 76.69812946 -3.91772461 78.05102539 C-7.24988028 85.79720547 -10.66658725 93.4867227 -14.26022339 101.11558533 C-17.8033988 108.66471651 -21.14714072 116.3016384 -24.50427246 123.93484497 C-26.5813883 128.65732094 -28.66402223 133.37736359 -30.74609375 138.09765625 C-31.17725494 139.07546555 -31.60841614 140.05327484 -32.05264282 141.06071472 C-36.76269586 151.73793975 -41.50577914 162.40042473 -46.25 173.0625 C-52.10357408 186.22029881 -57.94399585 199.38363798 -63.75 212.5625 C-68.79293556 224.00873813 -73.85540757 235.44609035 -78.9375 246.875 C-79.43719803 247.99878052 -79.43719803 247.99878052 -79.94699097 249.14526367 C-82.62441451 255.16604795 -85.30303029 261.18630163 -87.98181152 267.20648193 C-90.25929316 272.32489433 -92.53627911 277.4435268 -94.8125 282.5625 C-95.13890472 283.29653046 -95.46530945 284.03056091 -95.80160522 284.78683472 C-101.70318894 298.06101306 -107.57594638 311.34784539 -113.44186401 324.63781738 C-118.01202105 334.99150937 -122.59178451 345.3407838 -127.1953125 355.6796875 C-127.62532059 356.6454924 -128.05532867 357.6112973 -128.49836731 358.60636902 C-130.21560393 362.46305469 -131.93287849 366.31972347 -133.65036011 370.17630005 C-139.44152493 383.18495113 -145.17837397 396.21472845 -150.78076172 409.3059082 C-153.20785034 414.95821277 -155.71063696 420.56413563 -158.33203125 426.12890625 C-162.12196667 434.17945767 -165.69011361 442.32226888 -169.24731445 450.4777832 C-175.59126776 465.01847028 -182.00176481 479.52764504 -188.5 494 C-194.48222386 507.32580614 -200.39054508 520.68226272 -206.25 534.0625 C-211.74645622 546.61215687 -217.27915263 559.14279379 -222.89868164 571.63793945 C-227.8554982 582.66320313 -232.77643718 593.70428353 -237.6875 604.75 C-238.11478394 605.71090546 -238.54206787 606.67181091 -238.9822998 607.66183472 C-245.44519077 622.20090814 -251.85322966 636.76334195 -258.23083496 651.33999634 C-262.35422785 660.76054728 -266.50846087 670.16574985 -270.73828125 679.5390625 C-271.13311707 680.41412949 -271.52795288 681.28919647 -271.93475342 682.19078064 C-273.80075297 686.32283198 -275.67142443 690.45268608 -277.54931641 694.5793457 C-283.61347501 707.96465736 -289.26719772 721.44974007 -295 735 C-255.73 735 -216.46 735 -176 735 C-179.37736933 745.13210798 -179.37736933 745.13210798 -181.0078125 748.5625 C-181.35457031 749.29597656 -181.70132813 750.02945313 -182.05859375 750.78515625 C-182.41050781 751.51605469 -182.76242187 752.24695313 -183.125 753 C-183.66447266 754.14275391 -183.66447266 754.14275391 -184.21484375 755.30859375 C-186.85419324 760.85419324 -186.85419324 760.85419324 -188 762 C-189.92361627 762.09660952 -191.85083066 762.12187168 -193.77687073 762.12025452 C-195.03195435 762.12162918 -196.28703796 762.12300385 -197.58015442 762.12442017 C-198.98385644 762.12088055 -200.38755822 762.11724574 -201.79125977 762.11352539 C-203.25936888 762.11324353 -204.72747813 762.11340124 -206.19558716 762.1139679 C-210.19334657 762.1142559 -214.19107624 762.10835874 -218.18882871 762.10139394 C-222.36220733 762.09516085 -226.53558656 762.09455664 -230.70896912 762.09336853 C-238.61732792 762.09025508 -246.52567297 762.08204151 -254.4340257 762.07201904 C-263.43508494 762.06085832 -272.43614482 762.05534756 -281.43720925 762.05032361 C-299.95814731 762.03985891 -318.47907255 762.0222592 -337 762 C-336.38510668 758.77856541 -335.68325505 755.94410454 -334.34863281 752.9453125 C-334.00976044 752.17725281 -333.67088806 751.40919312 -333.32174683 750.61785889 C-332.95260162 749.79521545 -332.58345642 748.97257202 -332.203125 748.125 C-331.81826935 747.25675598 -331.4334137 746.38851196 -331.03689575 745.49395752 C-329.77943489 742.66046017 -328.5147716 739.83024068 -327.25 737 C-326.37409187 735.029809 -325.49860648 733.05943 -324.62353516 731.08886719 C-319.3961647 719.32755617 -314.12800003 707.58461555 -308.84350586 695.84887695 C-304.41888667 685.9965955 -300.11300659 676.09441726 -295.8125 666.1875 C-289.63326138 651.95279296 -283.33061011 637.77892352 -276.9385376 623.63861084 C-271.10595935 610.73204283 -265.36564936 597.78772852 -259.6875 584.8125 C-254.17158944 572.20801083 -248.61168032 559.62706963 -242.96044922 547.08251953 C-237.95276253 535.94379601 -233.06153655 524.7549449 -228.16567993 513.56674194 C-222.04802542 499.59342787 -215.82108618 485.67232832 -209.53945923 471.77206421 C-204.77186185 461.21758472 -200.07369641 450.64004541 -195.5 440 C-190.55926759 428.50609824 -185.46433861 417.08816331 -180.3125 405.6875 C-174.08696096 391.9092939 -167.93804037 378.1005037 -161.875 364.25 C-156.32303894 351.56920454 -150.7529148 338.89729244 -145.125 326.25 C-144.80746765 325.53615143 -144.4899353 324.82230286 -144.16278076 324.08682251 C-140.94109053 316.8445842 -137.71546187 309.604104 -134.48730469 302.36474609 C-132.26147299 297.37311616 -130.03750251 292.38065983 -127.81439209 287.38781738 C-126.95531319 285.45950738 -126.09552082 283.53151502 -125.23492432 281.60388184 C-121.00970682 272.13981246 -116.83106316 262.66472766 -112.84375 253.09765625 C-110.27004972 246.9257485 -107.58068709 240.83972341 -104.71903992 234.79521179 C-100.59101945 226.06075097 -96.7245951 217.20763546 -92.8125 208.375 C-91.93382183 206.39397789 -91.05499375 204.41302227 -90.17602539 202.43212891 C-88.35476244 198.32738925 -86.53413799 194.22236722 -84.71386719 190.1171875 C-82.11783252 184.2638881 -79.51682717 178.4128094 -76.9140625 172.5625 C-68.35941217 153.33254518 -59.82544992 134.09370677 -51.32550049 114.83950806 C-45.17362083 100.90531683 -39.00066922 86.98061238 -32.8125 73.0625 C-32.39643494 72.12663055 -31.98036987 71.19076111 -31.55169678 70.22653198 C-27.54327309 61.21075562 -23.53286218 52.19586583 -19.51927185 43.18238831 C-18.06203685 39.90947617 -16.60548398 36.63626071 -15.14901733 33.36300659 C-14.16624821 31.15516618 -13.18240115 28.94780853 -12.19848633 26.74047852 C-11.5930368 25.3804712 -10.98780566 24.02036664 -10.3828125 22.66015625 C-10.09699814 22.01768448 -9.81118378 21.37521271 -9.51670837 20.71327209 C-6.99895519 15.03485703 -4.56916963 9.32054794 -2.15966797 3.59545898 C-1 1 -1 1 0 0 Z " fill="#4E4E4E" transform="translate(1171,156)"/>
<path d="M0 0 C0.66 0 1.32 0 2 0 C2.35078613 0.63164062 2.70157227 1.26328125 3.06298828 1.9140625 C10.70985139 15.66702135 18.48090039 29.33369051 26.4375 42.91015625 C30.1321331 49.21570419 33.78852681 55.54294436 37.4375 61.875 C38.06003662 62.95515381 38.68257324 64.03530762 39.32397461 65.14819336 C40.58576826 67.33796334 41.84740534 69.52782355 43.10888672 71.71777344 C46.23680148 77.14659942 49.36858448 82.57319281 52.5 88 C53.75001879 90.16665583 55.00001878 92.3333225 56.25 94.5 C56.86875 95.5725 57.4875 96.645 58.125 97.75 C75 127 91.875 156.25 108.75 185.5 C109.3689917 186.57290283 109.9879834 187.64580566 110.62573242 188.7512207 C111.8733474 190.91378583 113.12090616 193.07638339 114.3684082 195.23901367 C117.52943449 200.71870371 120.69149309 206.19779358 123.85546875 211.67578125 C130.10206476 222.49327013 136.33056071 233.3202397 142.51464844 244.17358398 C146.27847712 250.7665698 150.10188801 257.32357055 153.9375 263.875 C158.52557589 271.71314636 163.04814337 279.58370569 167.5 287.5 C172.46133939 296.32024252 177.51941182 305.07912328 182.63110352 313.81298828 C186.92581613 321.15218153 191.19115973 328.50771566 195.4375 335.875 C196.05415527 336.94484131 196.67081055 338.01468262 197.30615234 339.11694336 C198.56217932 341.29661567 199.81803754 343.47638523 201.07373047 345.65625 C203.73034016 350.26777425 206.38829557 354.8785214 209.04711914 359.48876953 C210.30312898 361.66664882 211.55884939 363.84469506 212.81420898 366.02294922 C213.93719357 367.97033402 215.08389175 369.90433986 216.25964355 371.82032776 C218 375 218 375 218.95521545 378.19007874 C220.41782215 382.24085511 221.64814897 384.24197328 225 387 C232.13088175 388.82918243 239.82751712 388.00082091 247.1041851 387.62869453 C250.97895311 387.43918782 254.84678439 387.3384338 258.72535706 387.26316833 C269.74328475 387.03798297 280.75333907 386.69044577 291.76245117 386.19506836 C338.61397754 384.13203563 338.61397754 384.13203563 347.13458252 390.70379639 C353.85328986 397.20885088 357.16101222 405.97539432 359 415 C359 415.33 359 415.66 359 416 C309.5 416 260 416 209 416 C203.72 406.76 198.44 397.52 193 388 C189.33927376 381.77617638 189.33927376 381.77617638 185.66796875 375.55859375 C182.15909239 369.59281995 178.74108818 363.57462033 175.3125 357.5625 C164.65737726 338.8810082 153.91230015 320.25314757 143.05810547 301.68652344 C138.83815763 294.45948972 134.67572694 287.20126472 130.53613281 279.92797852 C126.75778851 273.29964385 122.91786543 266.70877788 119.0625 260.125 C113.9234274 251.34575097 108.88320968 242.51619802 103.89697266 233.64941406 C99.39802485 225.66551941 94.79095129 217.74781682 90.16015625 209.83984375 C86.40063791 203.41524463 82.68193715 196.96934727 79 190.5 C74.71452973 182.97160661 70.37377146 175.47743024 66 168 C61.12828732 159.67128596 56.30952917 151.31500786 51.53686523 142.92919922 C47.75821543 136.30049265 43.91810534 129.70918757 40.0625 123.125 C34.93155906 114.35964257 29.8978378 105.54486221 24.92114258 96.69116211 C20.16935752 88.25592436 15.30051974 79.8911379 10.40429688 71.5390625 C9.5622168 70.10240234 9.5622168 70.10240234 8.703125 68.63671875 C8.20458008 67.78811279 7.70603516 66.93950684 7.19238281 66.06518555 C6.42257859 64.7318985 5.68851331 63.37702662 5 62 C0.95005686 69.84189388 -2.71762392 77.7776883 -6.12039185 85.92025757 C-7.28659801 88.7101363 -8.4625026 91.49590282 -9.63749695 94.28208923 C-10.30192234 95.85780347 -10.96589917 97.43370692 -11.62947083 99.00978088 C-16.57407076 110.74971227 -21.57091748 122.46748984 -26.5625 134.1875 C-27.06407623 135.36569305 -27.56565247 136.54388611 -28.08242798 137.75778198 C-34.22070613 152.17480318 -40.39455511 166.57466049 -46.65063477 180.94091797 C-50.16884354 189.03668086 -53.60118161 197.16599528 -57 205.3125 C-62.54306188 218.59786217 -68.19610074 231.83467879 -73.875 245.0625 C-81.50775236 262.84207783 -89.11176157 280.63355141 -96.6875 298.4375 C-103.79363895 315.13617411 -110.9175419 331.82694499 -118.07455444 348.50387573 C-124.57701792 363.65764598 -131.04226652 378.82712044 -137.5 394 C-144.35769868 410.1116083 -151.22401071 426.21938132 -158.125 442.3125 C-158.48288605 443.14719818 -158.84077209 443.98189636 -159.20950317 444.84188843 C-162.63944548 452.84090918 -166.07169287 460.83893908 -169.50634766 468.8359375 C-179.21988392 491.45273445 -188.90021131 514.08190562 -198.45147705 536.76776123 C-207.93891257 559.29529873 -217.5771874 581.75823415 -227.22920227 604.21565247 C-229.15882814 608.70562177 -231.08650498 613.19623056 -232.99365234 617.69580078 C-233.42033455 618.70037071 -233.42033455 618.70037071 -233.8556366 619.72523499 C-234.56671173 621.40138531 -235.27508119 623.07868281 -235.9831543 624.75610352 C-237 627 -237 627 -238 628 C-240.14558827 628.08775605 -242.29404421 628.10695219 -244.44140625 628.09765625 C-246.39916992 628.09282227 -246.39916992 628.09282227 -248.39648438 628.08789062 C-249.7851569 628.07953401 -251.17382877 628.07106905 -252.5625 628.0625 C-253.95507656 628.05748666 -255.34765481 628.05292347 -256.74023438 628.04882812 C-260.1601987 628.03699434 -263.58007844 628.0205088 -267 628 C-266.40107802 624.55361483 -265.51842015 621.54415809 -264.14013672 618.33227539 C-263.55951477 616.96937881 -263.55951477 616.96937881 -262.96716309 615.57894897 C-262.54229614 614.59512238 -262.1174292 613.61129578 -261.6796875 612.59765625 C-261.23338989 611.55356598 -260.78709229 610.50947571 -260.32727051 609.43374634 C-258.84758107 605.97476132 -257.3612479 602.51867145 -255.875 599.0625 C-254.83234504 596.62822329 -253.79009974 594.19377615 -252.74853516 591.7590332 C-251.12883955 587.97375579 -249.50863267 584.18870068 -247.88607788 580.40464783 C-244.27626289 571.98594851 -240.67912745 563.56195715 -237.09375 555.1328125 C-236.61934479 554.01750656 -236.14493958 552.90220062 -235.65615845 551.75309753 C-234.70442886 549.51541775 -233.752738 547.2777215 -232.80108643 545.04000854 C-224.6367637 525.84694899 -216.43731444 506.66912966 -208.21350098 487.50149536 C-200.65814954 469.89055963 -193.1421207 452.26306068 -185.63769531 434.63037109 C-179.65577544 420.57543609 -173.66258165 406.52558087 -167.63684082 392.48937988 C-161.19173233 377.47369649 -154.79563151 362.43720401 -148.39685059 347.4017334 C-140.76049898 329.46011807 -133.09222629 311.53242186 -125.40408325 293.61294556 C-120.26964397 281.64456416 -115.15092482 269.67049641 -110.09326172 257.66943359 C-105.89480804 247.72039046 -101.6332829 237.79853647 -97.375 227.875 C-91.45272199 214.07363272 -85.5537199 200.26278623 -79.6875 186.4375 C-73.40466624 171.63307286 -67.08783813 156.84346226 -60.75 142.0625 C-60.3103894 141.03722198 -59.87077881 140.01194397 -59.41784668 138.95559692 C-55.8354589 130.60129917 -52.251507 122.24767263 -48.66741943 113.894104 C-45.59003895 106.72138687 -42.51327914 99.54840397 -39.4375 92.375 C-38.79192139 90.86941025 -38.79192139 90.86941025 -38.13330078 89.33340454 C-30.66940428 71.9233058 -23.24160752 54.49797277 -15.83374023 37.06396484 C-10.57926023 24.69921706 -5.29973656 12.34541993 0 0 Z " fill="#28A1C4" transform="translate(1186,502)"/>
<path d="M0 0 C32.4534375 -0.0928125 32.4534375 -0.0928125 65.5625 -0.1875 C72.3694751 -0.21481201 79.1764502 -0.24212402 86.18969727 -0.27026367 C94.56433105 -0.28381348 94.56433105 -0.28381348 98.49693298 -0.28633118 C101.2172795 -0.29090885 103.93719356 -0.30024912 106.65745544 -0.31672668 C136.18544137 -0.48769332 136.18544137 -0.48769332 148 3 C148.95036636 3.27942947 149.90073273 3.55885895 150.87989807 3.84675598 C158.74409541 6.36268942 165.19330427 11.66835484 169.66796875 18.57421875 C175.52622156 30.34226326 175.3058241 43.56261357 175.265625 56.4140625 C175.26697691 57.96096863 175.26892179 59.50787435 175.27142334 61.05477905 C175.27434813 64.27354029 175.27016203 67.49218944 175.26074219 70.7109375 C175.24932988 74.80683593 175.25593525 78.90247264 175.26788712 82.99836159 C175.27516133 86.18480351 175.27279277 89.37118475 175.26763153 92.55762863 C175.26631136 94.0668885 175.26788444 95.57615415 175.27259064 97.08540726 C175.30902432 112.04185299 174.37231605 126.49028853 163.625 138 C151.35390842 149.01457458 133.54797011 149.16048674 117.95288086 149.11352539 C116.65329972 149.11364593 115.35371859 149.11376646 114.0147562 149.11389065 C110.52417912 149.11411485 107.03363686 149.10835196 103.54306793 149.10128021 C100.25824585 149.09555221 96.97342511 149.0953153 93.68859863 149.09460449 C84.10489454 149.08937344 74.52119682 149.07541218 64.9375 149.0625 C32.7934375 149.0315625 32.7934375 149.0315625 0 149 C0 99.83 0 50.66 0 0 Z " fill="#27A1C4" transform="translate(1025,1168)"/>
<path d="M0 0 C21.223125 -0.020625 42.44625 -0.04125 64.3125 -0.0625 C70.99927002 -0.071604 77.68604004 -0.08070801 84.57543945 -0.09008789 C92.77770996 -0.09460449 92.77770996 -0.09460449 96.62467957 -0.09544373 C99.29588207 -0.09697341 101.96703631 -0.10009907 104.63822937 -0.10557556 C108.69803742 -0.1137873 112.75781061 -0.11390476 116.81762695 -0.11352539 C117.99593488 -0.1171235 119.1742428 -0.12072161 120.38825703 -0.12442875 C135.7565234 -0.10530007 152.09819863 0.70942094 163.8984375 11.78125 C175.56708001 24.18841419 175.31591857 40.33746995 175.265625 56.44921875 C175.26697678 57.99852051 175.26892155 59.54782186 175.27142334 61.09712219 C175.27434787 64.32007954 175.27016228 67.54292495 175.26074219 70.76586914 C175.24932024 74.87083384 175.25594144 78.97553769 175.26788712 83.08049297 C175.27515381 86.27118353 175.27279633 89.46181338 175.26763153 92.65250587 C175.2663098 94.16538335 175.26789015 95.67826657 175.27259064 97.19113731 C175.30572162 110.83906378 174.65819009 126.36263355 164.75 136.9375 C147.94004864 151.95292496 123.85029848 149.28834878 102.93538666 149.20256042 C99.66391934 149.19103036 96.39245684 149.19062667 93.12097168 149.18920898 C83.60146277 149.17878282 74.08197949 149.15086038 64.5625 149.125 C43.256875 149.08375 21.95125 149.0425 0 149 C0 99.83 0 50.66 0 0 Z " fill="#27A1C4" transform="translate(1925,1168)"/>
<path d="M0 0 C0.66 0 1.32 0 2 0 C2.5873291 1.06190552 2.5873291 1.06190552 3.18652344 2.14526367 C10.24736429 14.9036219 17.32673797 27.64786338 24.58569336 40.29492188 C28.19064903 46.5761111 31.75748623 52.87792846 35.3125 59.1875 C40.55034167 68.47487109 45.86177181 77.71809321 51.19799805 86.94921875 C61.2473556 104.339122 71.1998937 121.78405896 81.06689453 139.27807617 C85.68623636 147.46161984 90.3482664 155.62048256 95.0166626 163.77609253 C100.38634896 173.15756696 105.72060725 182.55855101 111.015625 191.98242188 C111.51320313 192.86607422 112.01078125 193.74972656 112.5234375 194.66015625 C112.95575684 195.42980713 113.38807617 196.19945801 113.83349609 196.99243164 C114.82569039 198.7000109 115.90451606 200.3567741 117 202 C117 202.99 117 203.98 117 205 C51.33 205 -14.34 205 -82 205 C-80.87500996 198.25005974 -80.87500996 198.25005974 -79.50048828 194.8918457 C-79.19571564 194.13857498 -78.89094299 193.38530426 -78.57693481 192.60920715 C-78.24474945 191.80617661 -77.91256409 191.00314606 -77.5703125 190.17578125 C-77.22048309 189.31607224 -76.87065369 188.45636322 -76.51022339 187.57060242 C-75.38757889 184.81550714 -74.25649168 182.06397195 -73.125 179.3125 C-72.40307817 177.54515364 -71.68171969 175.77757707 -70.9609375 174.00976562 C-69.45881774 170.32833203 -67.95310041 166.64839792 -66.44482422 162.96948242 C-63.81330949 156.54853565 -61.19510914 150.12219264 -58.578125 143.6953125 C-55.00527046 134.92208716 -51.43004343 126.14983814 -47.8515625 117.37890625 C-46.10906218 113.10689836 -44.36691501 108.83474658 -42.625 104.5625 C-42.16210571 103.42721863 -41.69921143 102.29193726 -41.22229004 101.12225342 C-35.88053622 88.01804366 -30.55203522 74.90864915 -25.2578125 61.78515625 C-24.79230988 60.63130936 -24.32680725 59.47746246 -23.84719849 58.28865051 C-21.63867511 52.81264213 -19.43235358 47.33575807 -17.22900391 41.85766602 C-11.5930732 27.85984759 -5.83498344 13.9160039 0 0 Z " fill="#27A1C4" transform="translate(1199,702)"/>
<path d="M0 0 C1.72863281 -0.02900391 1.72863281 -0.02900391 3.4921875 -0.05859375 C10.13673286 0.84877965 14.43347476 3.19299782 18.625 8.46484375 C19.80769263 10.0900199 20.97357167 11.72752552 22.125 13.375 C23.43242281 15.18183745 24.74105714 16.98779875 26.05078125 18.79296875 C27.05359131 20.18974854 27.05359131 20.18974854 28.07666016 21.61474609 C31.40569424 26.20238519 34.86148948 30.69134284 38.3125 35.1875 C43.42528204 41.87998491 48.50552367 48.59496739 53.54760742 55.34082031 C57.70723948 60.89818384 61.91335303 66.41949004 66.125 71.9375 C70.89760971 78.19155569 75.6583802 84.45358346 80.375 90.75 C80.84800537 91.38123779 81.32101074 92.01247559 81.80834961 92.6628418 C84.35340775 96.06251517 86.89146273 99.46731405 89.42578125 102.875 C90.2441748 103.972677 90.2441748 103.972677 91.07910156 105.0925293 C92.12351169 106.49347834 93.16594658 107.89590288 94.20605469 109.30004883 C94.91036621 110.24400513 94.91036621 110.24400513 95.62890625 111.20703125 C96.03955322 111.75979736 96.4502002 112.31256348 96.87329102 112.88208008 C98.19169088 114.52037256 99.61337829 115.97750134 101.125 117.4375 C101.52589844 116.9113208 101.92679688 116.3851416 102.33984375 115.84301758 C103.55996495 114.2416085 104.78009978 112.64020979 106.00024414 111.03881836 C107.43702807 109.15298787 108.87371155 107.26708084 110.31030273 105.38110352 C113.94546566 100.60908869 117.58188597 95.838051 121.22265625 91.0703125 C128.41900838 81.64271138 135.57487552 72.18697046 142.68066406 62.69091797 C151.12092474 51.4215821 159.70297652 40.26054029 168.30859375 29.1171875 C170.61452953 26.11800334 172.88840825 23.09545971 175.16015625 20.0703125 C175.87518311 19.12188477 176.59020996 18.17345703 177.3269043 17.19628906 C178.75345475 15.30319683 180.17564348 13.40680831 181.59301758 11.50683594 C182.25068115 10.63575195 182.90834473 9.76466797 183.5859375 8.8671875 C184.17165527 8.08585449 184.75737305 7.30452148 185.36083984 6.49951172 C189.08462754 2.14701921 192.25858763 0.68728736 197.859375 0.19921875 C204.27358627 0.04135604 210.0158486 0.14088834 215.125 4.4375 C217.83976793 8.23481268 218.49798526 10.82742878 218.48576355 15.46760559 C218.49194954 17.28275162 218.49194954 17.28275162 218.4982605 19.13456726 C218.48747467 20.45374649 218.47668884 21.77292572 218.46557617 23.13208008 C218.46472954 24.54166648 218.46520576 25.95125421 218.46690369 27.36083984 C218.46776365 31.18078618 218.45013793 35.00044932 218.42918181 38.8203299 C218.41041507 42.81483155 218.40866458 46.80933985 218.40510559 50.80387878 C218.39578511 58.36508383 218.37117131 65.92615859 218.34105712 73.4873063 C218.30751319 82.09667173 218.29102712 90.70604342 218.27597082 99.31545794 C218.24462171 117.02289414 218.18960964 134.73015177 218.125 152.4375 C207.895 152.4375 197.665 152.4375 187.125 152.4375 C186.795 121.0875 186.465 89.7375 186.125 57.4375 C179.195 66.3475 179.195 66.3475 172.125 75.4375 C168.1171875 80.5703125 168.1171875 80.5703125 166.52734375 82.60546875 C161.16115105 89.48133203 155.87376695 96.40808673 150.66137695 103.40112305 C146.32376247 109.20634606 141.88276925 114.92757125 137.41943359 120.63647461 C133.88366656 125.16243227 130.38757508 129.71529587 126.92163086 134.29492188 C112.28793901 153.59848618 112.28793901 153.59848618 106.125 155.4375 C100.42458477 156.05106159 95.03911914 156.28821962 89.75 153.9375 C83.38876519 147.87918113 78.24503718 141.0199859 73.02099609 133.98730469 C69.1263061 128.74726345 65.14795511 123.57957312 61.125 118.4375 C56.2277957 112.17234285 51.41482668 105.85325666 46.6640625 99.4765625 C42.88138211 94.41297447 39.01700203 89.41741129 35.125 84.4375 C30.48565668 78.49952609 25.89543746 72.52909201 21.375 66.5 C20.87355469 65.83162109 20.37210938 65.16324219 19.85546875 64.47460938 C17.88075517 61.83157351 15.95553635 59.18330453 14.125 56.4375 C13.795 88.1175 13.465 119.7975 13.125 152.4375 C3.225 152.4375 -6.675 152.4375 -16.875 152.4375 C-16.96528631 133.74858045 -17.03897376 115.05983742 -17.08224869 96.3707552 C-17.10287585 87.69313564 -17.13099932 79.01566119 -17.17675781 70.33813477 C-17.21662095 62.77498487 -17.2424317 55.21194005 -17.25135398 47.64868802 C-17.25656965 43.64378075 -17.26883129 39.63917411 -17.29792023 35.63436317 C-17.32508126 31.86441229 -17.33344374 28.09488571 -17.32743073 24.32484627 C-17.32853067 22.94173629 -17.33648091 21.55861204 -17.3518219 20.1755867 C-17.37175608 18.28568556 -17.36454683 16.39555648 -17.35601807 14.50556946 C-17.35970524 13.44827291 -17.36339241 12.39097635 -17.36719131 11.30164051 C-16.74700951 7.69270272 -15.3896697 6.05306556 -12.875 3.4375 C-8.52279656 0.68271195 -5.11788278 0.0056992 0 0 Z " fill="#27A1C4" transform="translate(1422.875,1164.5625)"/>
<path d="M0 0 C7.84758229 4.90362411 12.75221794 13.80971911 17.42553711 21.5390625 C18.73910602 23.6759246 20.05291487 25.81263923 21.36694336 27.94921875 C22.02968262 29.03348145 22.69242188 30.11774414 23.37524414 31.23486328 C26.50372791 36.33680475 29.68470254 41.40558688 32.86303711 46.4765625 C34.10942407 48.46986877 35.35551694 50.46335896 36.60131836 52.45703125 C37.21958496 53.44622559 37.83785156 54.43541992 38.47485352 55.45458984 C40.39018915 58.52001841 42.30446552 61.58610627 44.21850586 64.65234375 C49.91325741 73.77320598 55.61358254 82.89005937 61.36303711 91.9765625 C67.77284864 102.10809523 74.13134757 112.27142329 80.47290039 122.44580078 C81.74080598 124.47883875 83.01002815 126.51105619 84.28051758 128.54248047 C86.10268107 131.45615424 87.92083651 134.37229164 89.73803711 137.2890625 C90.29160889 138.17255371 90.84518066 139.05604492 91.41552734 139.96630859 C92.17458374 141.18761475 92.17458374 141.18761475 92.94897461 142.43359375 C93.39289551 143.14491455 93.83681641 143.85623535 94.29418945 144.58911133 C95.36303711 146.4765625 95.36303711 146.4765625 96.36303711 149.4765625 C62.49149693 152.31760501 62.49149693 152.31760501 54.58129883 147.93554688 C50.66671183 143.95300856 48.91052568 139.1455969 47.24047852 133.89746094 C45.83395577 130.01680442 43.53287421 126.83507136 41.17553711 123.4765625 C37.36303711 117.79175401 37.36303711 117.79175401 37.36303711 115.4765625 C24.02808572 115.11960264 10.69636011 114.8776732 -2.64315319 114.77965832 C-8.83897055 114.73057926 -15.02909282 114.64299259 -21.22265625 114.46508789 C-27.20880258 114.29459586 -33.18814728 114.2282855 -39.17663002 114.23195839 C-41.45235794 114.21547171 -43.72814337 114.16240284 -46.00209618 114.07103539 C-58.28531893 113.32601639 -58.28531893 113.32601639 -68.87454414 118.53002548 C-73.51481886 124.28407643 -76.74127863 130.70833843 -79.63696289 137.4765625 C-79.94758856 138.20234182 -80.25821423 138.92812115 -80.57825279 139.67589378 C-81.29010621 141.36319386 -81.99715734 143.05251838 -82.70336914 144.7421875 C-84.31926099 147.54818544 -85.39516199 149.11398484 -88.56097412 150.03833008 C-94.563093 150.95876416 -100.53873333 150.56775208 -106.57446289 150.2265625 C-108.42129539 150.16632386 -110.26831576 150.11157881 -112.11547852 150.0625 C-116.62729604 149.93067603 -121.13006558 149.72396766 -125.63696289 149.4765625 C-122.68543336 143.33444362 -119.5528395 137.51197166 -115.76196289 131.8515625 C-110.38619845 123.68634436 -105.1934512 115.41435183 -100.02807617 107.11474609 C-96.47500103 101.40858206 -92.89512519 95.72110856 -89.28051758 90.05371094 C-82.1684868 78.90181004 -75.14159937 67.69612558 -68.13696289 56.4765625 C-61.67057087 46.12179662 -55.18755514 35.7783105 -48.63696289 25.4765625 C-48.14147949 24.69571289 -47.64599609 23.91486328 -47.13549805 23.11035156 C-45.66171556 20.79175292 -44.18166064 18.47728852 -42.69946289 16.1640625 C-42.26279297 15.47642822 -41.82612305 14.78879395 -41.3762207 14.08032227 C-31.95536079 -0.55033856 -17.36809287 -8.57512233 0 0 Z " fill="#28A1C4" transform="translate(913.636962890625,1167.5234375)"/>
<path d="M0 0 C6.74603853 5.3170747 11.20810154 12.4002564 15.56640625 19.6875 C16.70752415 21.56299257 17.84946813 23.43798276 18.9921875 25.3125 C19.56018066 26.24835938 20.12817383 27.18421875 20.71337891 28.1484375 C23.18217996 32.19000452 25.7147906 36.18987108 28.25390625 40.1875 C32.75782181 47.29713489 37.23290453 54.42429789 41.69140625 61.5625 C42.31942139 62.56796875 42.94743652 63.5734375 43.59448242 64.609375 C46.16867622 68.73175641 48.74203575 72.85465831 51.31542969 76.97753906 C58.11905766 87.8764211 64.93053699 98.7696579 71.8034668 109.625 C76.67219903 117.3218748 81.49178507 125.04936618 86.3046875 132.78125 C89.97170655 138.67315906 89.97170655 138.67315906 93.81640625 144.44921875 C95.37890625 146.875 95.37890625 146.875 95.37890625 148.875 C89.97176564 149.19803689 84.57029587 149.4329136 79.15576172 149.58911133 C77.31785258 149.65423155 75.48061066 149.74277109 73.64501953 149.85571289 C61.53896448 150.5815507 61.53896448 150.5815507 56.37890625 148.875 C52.31266811 145.11754978 50.51654265 140.91366428 48.37890625 135.875 C47.28293358 134.06535977 46.15002786 132.2772997 44.97265625 130.51953125 C44.19921875 129.31006836 44.19921875 129.31006836 43.41015625 128.07617188 C42.36069749 126.43906976 41.30847228 124.80373872 40.25390625 123.16992188 C39.74859375 122.37779297 39.24328125 121.58566406 38.72265625 120.76953125 C38.27083984 120.06675049 37.81902344 119.36396973 37.35351562 118.63989258 C36.37890625 116.875 36.37890625 116.875 36.37890625 114.875 C23.04395486 114.51804014 9.71222925 114.2761107 -3.62728405 114.17809582 C-9.82310141 114.12901676 -16.01322368 114.04143009 -22.20678711 113.86352539 C-28.19293344 113.69303336 -34.17227814 113.626723 -40.16076088 113.63039589 C-42.4364888 113.61390921 -44.71227423 113.56084034 -46.98622704 113.46947289 C-59.26944979 112.72445389 -59.26944979 112.72445389 -69.858675 117.92846298 C-74.49894972 123.68251393 -77.72540949 130.10677593 -80.62109375 136.875 C-80.93171942 137.60077932 -81.24234509 138.32655865 -81.56238365 139.07433128 C-82.27423707 140.76163136 -82.9812882 142.45095588 -83.6875 144.140625 C-85.30339185 146.94662294 -86.37929284 148.51242234 -89.54510498 149.43676758 C-95.54722386 150.35720166 -101.52286419 149.96618958 -107.55859375 149.625 C-109.40542625 149.56476136 -111.25244662 149.51001631 -113.09960938 149.4609375 C-117.6114269 149.32911353 -122.11419644 149.12240516 -126.62109375 148.875 C-125.34450469 145.45560528 -123.87196146 142.48015497 -121.890625 139.41796875 C-121.3426123 138.56501221 -120.79459961 137.71205566 -120.22998047 136.83325195 C-119.63717285 135.91890381 -119.04436523 135.00455566 -118.43359375 134.0625 C-117.16055251 132.08131092 -115.8884495 130.09951873 -114.6171875 128.1171875 C-113.95831543 127.09077148 -113.29944336 126.06435547 -112.62060547 125.00683594 C-109.37522689 119.92359827 -106.18535624 114.80606434 -102.99609375 109.6875 C-94.91468386 96.73259184 -86.77428711 83.81660397 -78.56494141 70.94238281 C-73.06671546 62.31825416 -67.60161897 53.67476941 -62.18359375 45 C-61.56774414 44.01499512 -60.95189453 43.02999023 -60.31738281 42.01513672 C-57.04534447 36.7766391 -53.78911986 31.52893322 -50.55078125 26.26953125 C-49.54809204 24.64797119 -49.54809204 24.64797119 -48.52514648 22.99365234 C-47.25143264 20.93325614 -45.98240545 18.86995229 -44.71899414 16.80322266 C-34.17232755 -0.22434932 -34.17232755 -0.22434932 -24.32421875 -2.703125 C-15.72233207 -4.04561598 -7.823865 -4.03090003 0 0 Z " fill="#28A1C4" transform="translate(516.62109375,1168.125)"/>
<path d="M0 0 C1.71123047 -0.02900391 1.71123047 -0.02900391 3.45703125 -0.05859375 C14.57627497 1.42009102 20.84904468 8.50818848 28.25 16.25 C30.31943744 18.38618313 32.39566507 20.51569501 34.47265625 22.64453125 C35.22441635 23.4185881 35.22441635 23.4185881 35.99136353 24.20828247 C39.23758751 27.53166468 42.60145117 30.614059 46.13842773 33.61987305 C51.20639938 38.11541086 55.86880488 43.07142718 60.62402344 47.89453125 C67.20729571 54.59331399 67.20729571 54.59331399 74.15625 60.90625 C80.17909851 66.05817744 85.63439427 71.82932133 91.19677734 77.46728516 C97.88793528 84.2993572 97.88793528 84.2993572 104.96875 90.71875 C111.67724784 96.63216661 117.86403421 103.11403421 124.1875 109.4375 C124.6825 56.9675 124.6825 56.9675 125.1875 3.4375 C135.4175 3.4375 145.6475 3.4375 156.1875 3.4375 C156.25521473 22.12641753 156.31048045 40.81523577 156.34293652 59.5042448 C156.35840683 68.18182962 156.37949947 76.85933281 156.41381836 85.53686523 C156.44371571 93.1000147 156.46307381 100.66310506 156.46976548 108.22631198 C156.47367718 112.23116136 156.48287356 116.23584163 156.50469017 120.24063683 C156.52506068 124.01053875 156.5313327 127.78020199 156.52682304 131.55015373 C156.527648 132.93325345 156.53361046 134.31636119 156.54511642 135.6994133 C156.56006742 137.5893602 156.55466015 139.47943533 156.54826355 141.36943054 C156.55102893 142.42672709 156.55379431 143.48402365 156.55664349 144.57335949 C156.12745217 147.90340397 155.17844168 149.75346734 153.1875 152.4375 C146.97487108 156.35415736 140.34937483 156.0662142 133.1875 155.4375 C122.13008421 152.5778235 113.32381203 141.72609851 105.53637695 133.81860352 C101.84398139 130.07127427 98.09679612 126.49979109 94.07421875 123.10546875 C90.7664852 120.18124054 87.7266765 116.98325182 84.625 113.84375 C82.53749365 111.78300655 80.41580777 109.84234374 78.1875 107.9375 C74.11126781 104.45297893 70.39199127 100.65668019 66.625 96.84375 C64.53749365 94.78300655 62.41580777 92.84234374 60.1875 90.9375 C56.11126781 87.45297893 52.39199127 83.65668019 48.625 79.84375 C46.53749365 77.78300655 44.41580777 75.84234374 42.1875 73.9375 C38.11826131 70.45895725 34.40488454 66.66984472 30.64453125 62.86328125 C27.89050568 60.14428303 25.03092112 57.60038681 22.07421875 55.10546875 C19.68029804 52.98910407 17.44690875 50.69690875 15.1875 48.4375 C14.8575 82.7575 14.5275 117.0775 14.1875 152.4375 C3.9575 152.4375 -6.2725 152.4375 -16.8125 152.4375 C-16.90281303 133.8962349 -16.97648933 115.35514803 -17.01974869 96.8137188 C-17.04036912 88.20450844 -17.06847971 79.5954445 -17.11425781 70.98632812 C-17.15414157 63.48213227 -17.17993659 55.97804246 -17.18885398 48.47374356 C-17.19406616 44.50066126 -17.20630557 40.52788233 -17.23542023 36.55489731 C-17.26261385 32.81366962 -17.27093717 29.07286964 -17.26493073 25.33155251 C-17.26655214 23.3073086 -17.28805427 21.28311105 -17.31018066 19.25898743 C-17.25953443 8.10053686 -17.25953443 8.10053686 -12.8125 3.4375 C-8.52244892 0.63086907 -5.08380843 0.00570573 0 0 Z " fill="#27A1C4" transform="translate(1742.8125,1164.5625)"/>
<path d="M0 0 C2.48046059 0.01507928 4.96093009 0.02876192 7.44140625 0.04101562 C13.46134224 0.07117562 19.48001748 0.12994351 25.5 0.1875 C25.5 9.4275 25.5 18.6675 25.5 28.1875 C22.2721875 28.22488281 19.044375 28.26226563 15.71875 28.30078125 C12.5744774 28.3470617 9.43032077 28.39827171 6.28613281 28.44995117 C4.10977289 28.48309781 1.93332912 28.51116134 -0.24316406 28.53393555 C-3.38122103 28.56767038 -6.51851675 28.6199962 -9.65625 28.67578125 C-11.10360535 28.68536613 -11.10360535 28.68536613 -12.5802002 28.69514465 C-18.79853364 28.82888359 -25.16797575 29.23675653 -30.05895996 33.56806946 C-37.06617322 41.48205384 -34.93258687 50.40665046 -35.5 61.1875 C6.41 61.1875 48.32 61.1875 91.5 61.1875 C91.5 70.0975 91.5 79.0075 91.5 88.1875 C49.59 88.1875 7.68 88.1875 -35.5 88.1875 C-35.78195737 103.40060957 -35.78195737 103.40060957 -29.75 117.125 C-22.98708066 120.3186008 -16.69923932 120.49091912 -9.33227539 120.50634766 C-8.22909973 120.51639328 -7.12592407 120.5264389 -5.98931885 120.53678894 C-2.35876973 120.56757222 1.27170579 120.58464283 4.90234375 120.6015625 C7.42583344 120.62027802 9.94931691 120.63985172 12.47279358 120.6602478 C18.42595252 120.70629793 24.37912572 120.74372073 30.33236653 120.77692068 C37.11359474 120.81522279 43.89472827 120.86461158 50.6758765 120.91490483 C64.61718773 121.01805536 78.55854679 121.10590703 92.5 121.1875 C92.5 130.4275 92.5 139.6675 92.5 149.1875 C76.98263135 149.25546538 61.46533747 149.31062548 45.94785976 149.34293652 C38.74130832 149.35834409 31.53485656 149.37931522 24.32836914 149.41381836 C18.04035034 149.44390947 11.75240381 149.46311928 5.464315 149.46976548 C2.14096074 149.47364479 -1.18202461 149.48425433 -4.50534248 149.50469017 C-44.13957977 149.73856274 -44.13957977 149.73856274 -58.375 137 C-68.93196517 125.50632569 -68.81540394 109.89355703 -68.80078125 95.26171875 C-68.80467806 93.6256347 -68.80901472 91.98955164 -68.81376648 90.35346985 C-68.82119228 86.93686636 -68.82096436 83.52036626 -68.81567383 80.10375977 C-68.80988912 75.76015485 -68.82680376 71.41697773 -68.8500185 67.07344341 C-68.86486693 63.6973276 -68.86561249 60.32131214 -68.86250877 56.94516945 C-68.86301659 55.34544847 -68.86815095 53.74572106 -68.87832069 52.14603233 C-68.96150577 37.23191109 -67.78731536 22.92282695 -57.3125 11.4375 C-42.10317948 -2.60187279 -19.13659346 -0.20358078 0 0 Z " fill="#27A1C4" transform="translate(1292.5,1167.8125)"/>
<path d="M0 0 C1.13302048 -0.00014603 2.26604095 -0.00029205 3.43339539 -0.0004425 C7.13961776 0.00024837 10.84578847 0.00800177 14.55200195 0.01586914 C17.13702873 0.01773626 19.72205587 0.01915877 22.30708313 0.02015686 C28.3911896 0.02357132 34.47527508 0.03143471 40.55937368 0.04150635 C47.49298886 0.05273208 54.42660497 0.05819413 61.36022699 0.06320179 C75.60775708 0.07361933 89.85526575 0.09193875 104.1027832 0.11352539 C104.1027832 9.68352539 104.1027832 19.25352539 104.1027832 29.11352539 C98.96981689 29.13539917 98.96981689 29.13539917 93.7331543 29.15771484 C82.42947741 29.20804204 71.12593367 29.27448385 59.82239342 29.3492403 C52.96876947 29.39417332 46.1151972 29.43359364 39.26147461 29.45996094 C32.64779913 29.48542031 26.03433591 29.52634187 19.42079544 29.57671165 C16.89705898 29.5934021 14.3732827 29.60490278 11.84949875 29.6111393 C8.31568 29.62075635 4.78245275 29.64878848 1.2487793 29.68115234 C-0.31783951 29.67899971 -0.31783951 29.67899971 -1.91610718 29.67680359 C-7.31889409 29.74682284 -11.25286202 30.03233801 -15.8972168 33.11352539 C-20.5782279 38.05459267 -22.1427353 42.50242393 -22.171875 49.24560547 C-22.18140701 50.4606929 -22.19093903 51.67578033 -22.20075989 52.9276886 C-22.19939278 54.88559578 -22.19939278 54.88559578 -22.19799805 56.88305664 C-22.20188956 58.24680206 -22.20622517 59.61054627 -22.21098328 60.97428894 C-22.21843216 63.82974173 -22.21816466 66.68507086 -22.21289062 69.54052734 C-22.2071082 73.1819321 -22.22400313 76.82282618 -22.2472353 80.46414661 C-22.26204236 83.2807659 -22.26283475 86.09726431 -22.25972557 88.91391563 C-22.26048205 90.90347411 -22.27430316 92.89301395 -22.28840637 94.88252258 C-22.248801 102.66870887 -22.02063783 109.15719208 -17.0222168 115.48852539 C-13.23918828 118.38142955 -9.68673251 119.36078328 -4.96806335 119.39199829 C-3.51893303 119.40874352 -3.51893303 119.40874352 -2.04052734 119.42582703 C-0.99251953 119.42798721 0.05548828 119.4301474 1.13525391 119.43237305 C2.24789108 119.44241867 3.36052826 119.45246429 4.50688171 119.46281433 C8.18077076 119.49367977 11.85458681 119.51069109 15.52856445 119.52758789 C18.07733286 119.5462968 20.62609506 119.56587 23.17485046 119.58627319 C29.195374 119.63238172 35.21589057 119.66977945 41.23649424 119.70294607 C48.0926442 119.74120251 54.94869978 119.79060339 61.80477011 119.84093022 C75.90404485 119.94417648 90.00336706 120.03198947 104.1027832 120.11352539 C104.1027832 129.68352539 104.1027832 139.25352539 104.1027832 149.11352539 C88.69852773 149.18146997 73.29434745 149.23663892 57.88998222 149.26896191 C50.73608884 149.28437465 43.58229576 149.30535593 36.4284668 149.33984375 C30.18696936 149.36991876 23.94554464 149.38914094 17.70397675 149.39579087 C14.40471965 149.39967281 11.10571669 149.41029592 7.80651474 149.43071556 C-31.48965358 149.66412005 -31.48965358 149.66412005 -45.8347168 136.98852539 C-56.11389955 125.65635318 -56.21229275 109.6376544 -56.19799805 95.28540039 C-56.20189381 93.6478871 -56.20623026 92.0103748 -56.21098328 90.37286377 C-56.21841549 86.95028399 -56.2181768 83.52780741 -56.21289062 80.10522461 C-56.20711042 75.75374399 -56.22400645 71.40269103 -56.2472353 67.05128098 C-56.26208537 63.67087398 -56.26282897 60.2905672 -56.25972557 56.91013336 C-56.26023348 55.30762132 -56.26536973 53.70510286 -56.27553749 52.10262299 C-56.35867645 37.16501547 -55.22423741 22.76456354 -44.5847168 11.30102539 C-32.56960093 0.08864355 -15.47564166 -0.05323624 0 0 Z " fill="#28A1C4" transform="translate(673.897216796875,1167.886474609375)"/>
<path d="M0 0 C10.23 0 20.46 0 31 0 C25.09605552 14.43186429 18.9507381 28.71519066 12.5625 42.9375 C12.19433167 43.75725311 11.82616333 44.57700623 11.44683838 45.42160034 C9.98173978 48.68294336 8.51623701 51.94410426 7.05007935 55.20497131 C0.49331473 69.7939761 -6.03195974 84.40219446 -12.10180664 99.2019043 C-14.05334862 103.91481942 -16.17008742 108.54037778 -18.33984375 113.15625 C-21.4978797 119.87646579 -24.52184661 126.64777608 -27.48010254 133.45870972 C-28.66573947 136.1882045 -29.8559655 138.9156923 -31.04580688 141.64335632 C-31.68938201 143.11878228 -32.33275057 144.59429837 -32.97592163 146.06990051 C-36.88364187 155.03321348 -40.81739604 163.98508449 -44.75 172.9375 C-45.51475254 174.67886372 -46.27948221 176.42023748 -47.04418945 178.16162109 C-48.59121725 181.68444768 -50.13834531 185.2072302 -51.68554688 188.72998047 C-55.08413268 196.46828518 -58.48139917 204.20716906 -61.87875366 211.9460144 C-63.00282902 214.50644397 -64.1270095 217.06682735 -65.2512207 219.62719727 C-68.6185122 227.29630527 -71.98529572 234.96563406 -75.34933472 242.63616943 C-83.76870455 261.83352118 -92.21083127 281.02051398 -100.69042969 300.19134521 C-106.24338679 312.74624128 -111.77599045 325.30986538 -117.28927612 337.88223267 C-119.5044516 342.9324795 -121.72235851 347.98152742 -123.94029236 353.03056335 C-125.59536506 356.79880773 -127.24902154 360.56765467 -128.8984375 364.33837891 C-130.57260729 368.16552695 -132.25458344 371.98919026 -133.9375 375.8125 C-134.41566162 376.90949219 -134.89382324 378.00648438 -135.38647461 379.13671875 C-135.82483643 380.12929688 -136.26319824 381.121875 -136.71484375 382.14453125 C-137.08730225 382.99378174 -137.45976074 383.84303223 -137.84350586 384.71801758 C-139.01850321 387.03651035 -140.37907315 388.97376854 -142 391 C-142.27150879 390.50709473 -142.54301758 390.01418945 -142.82275391 389.50634766 C-143.63171975 388.03939097 -144.44197018 386.57314228 -145.25317383 385.10742188 C-146.17088202 383.44676038 -147.08476038 381.78397691 -147.99487305 380.11914062 C-150.40682056 375.73675463 -152.93409869 371.59694648 -155.8125 367.5 C-157.32714332 364.98460435 -158.08540184 363.65427905 -157.70046997 360.70524597 C-157.29983841 359.51926567 -157.29983841 359.51926567 -156.89111328 358.30932617 C-156.59553528 357.43239105 -156.29995728 356.55545593 -155.99542236 355.65194702 C-154.45410348 351.54565387 -152.74576757 347.54240498 -150.9296875 343.55078125 C-150.53640259 342.6725621 -150.14311768 341.79434296 -149.73791504 340.88951111 C-148.89436704 339.00731628 -148.04812423 337.12632723 -147.19940186 335.24645996 C-144.92251984 330.20246169 -142.66611608 325.14929487 -140.40625 320.09765625 C-139.9475351 319.07380829 -139.48882019 318.04996033 -139.01620483 316.99508667 C-134.73898947 307.44078865 -130.54466021 297.85162085 -126.375 288.25 C-124.9847236 285.05193171 -123.59394135 281.8540835 -122.203125 278.65625 C-121.85916687 277.8652037 -121.51520874 277.07415741 -121.16082764 276.25914001 C-117.16831119 267.08090846 -113.14869275 257.91459824 -109.125 248.75 C-108.75706329 247.91166626 -108.38912659 247.07333252 -108.01004028 246.20959473 C-103.65266075 236.28318726 -99.27907795 226.36410528 -94.88671875 216.453125 C-94.46124756 215.4925116 -94.03577637 214.53189819 -93.59741211 213.54217529 C-91.55292566 208.92628194 -89.50644756 204.31129795 -87.45556641 199.69824219 C-83.99616194 191.90064491 -80.59545475 184.09192247 -77.38671875 176.1875 C-74.99470033 170.29812521 -72.43282873 164.52270476 -69.7109375 158.77902222 C-65.86142755 150.63906762 -62.29238336 142.37537586 -58.6875 134.125 C-57.89927882 132.32478647 -57.11086301 130.52465814 -56.32226562 128.72460938 C-54.68984483 124.99804811 -53.05824783 121.27112786 -51.42724609 117.54394531 C-47.99578919 109.70408722 -44.55404747 101.86874843 -41.11254883 94.03329468 C-39.99597161 91.49082728 -38.87975675 88.94820113 -37.76367188 86.40551758 C-34.34326411 78.61314079 -30.9218826 70.82119599 -27.49694824 63.0308075 C-18.27136151 42.04600674 -9.09368686 21.04236844 0 0 Z " fill="#27A1C4" transform="translate(1636,334)"/>
<path d="M0 0 C23.38789238 -0.16043524 23.38789238 -0.16043524 33.37890625 -0.1953125 C40.18876658 -0.21919767 46.9984112 -0.2474144 53.80810547 -0.30175781 C59.29999146 -0.34530904 64.79164602 -0.36915694 70.28369141 -0.37950897 C72.3760136 -0.38688365 74.46832354 -0.40128468 76.56054688 -0.42292023 C79.49767143 -0.45207715 82.4338471 -0.45595082 85.37109375 -0.45410156 C86.2306517 -0.46848267 87.09020966 -0.48286377 87.97581482 -0.49768066 C94.46546826 -0.45364446 99.79335775 1.0679253 104.66573238 5.52310467 C110.28836688 11.74677565 109.45241984 21.6564182 109.43359375 29.43359375 C109.4388356 30.70670914 109.44407745 31.97982452 109.44947815 33.29151917 C109.45587835 35.97371774 109.45604333 38.65505809 109.44604492 41.3371582 C109.43456052 44.74751672 109.4547819 48.15683886 109.48396206 51.56706142 C109.50688474 54.85590913 109.4998503 58.14468502 109.49609375 61.43359375 C109.50732773 62.64430038 109.51856171 63.85500702 109.53013611 65.10240173 C109.46219686 73.4412795 108.60877676 81.2986905 102.5625 87.5 C96.78161099 90.88393503 92.28570225 91.28136371 85.71166992 91.22705078 C84.78435059 91.22734283 83.85703125 91.22763489 82.90161133 91.22793579 C79.84446776 91.22654535 76.78756961 91.21099749 73.73046875 91.1953125 C71.6076928 91.19158136 69.48491513 91.18873486 67.36213684 91.18673706 C61.78080472 91.1791086 56.19957705 91.15946679 50.61828613 91.1373291 C43.91854256 91.11325246 37.21876403 91.10408595 30.51898956 91.09242249 C20.34592045 91.07304203 10.17308041 91.03471383 0 91 C0 60.97 0 30.94 0 0 Z " fill="#FEFEFE" transform="translate(1058,1197)"/>
<path d="M0 0 C23.13832645 -0.12032643 23.13832645 -0.12032643 33.0234375 -0.14648438 C39.76081455 -0.16439746 46.49806894 -0.1855583 53.23535156 -0.22631836 C58.6688725 -0.25898395 64.10226184 -0.27686829 69.53587341 -0.28463173 C71.60585094 -0.29016229 73.6758215 -0.30096212 75.7457428 -0.31719017 C78.65161541 -0.33905996 81.55694857 -0.34196291 84.46289062 -0.34057617 C85.31309784 -0.351362 86.16330505 -0.36214783 87.03927612 -0.3732605 C94.00371231 -0.3374452 99.67084989 0.77211729 104.875 5.75 C109.67453424 13.09046414 109.3200929 20.45539397 109.3359375 28.984375 C109.3459227 30.86144135 109.3459227 30.86144135 109.35610962 32.77642822 C109.36621418 35.4191312 109.37179525 38.06142247 109.37060547 40.70410156 C109.37044305 43.39447958 109.38431318 46.08417583 109.41162109 48.77441406 C109.4484649 52.67794332 109.45808736 56.58068862 109.4609375 60.484375 C109.47530853 61.67432068 109.48967957 62.86426636 109.50448608 64.090271 C109.45879892 72.53813489 108.62189399 81.19236785 102.5625 87.5625 C96.73981654 90.82888341 92.28167328 91.28133042 85.71166992 91.22705078 C84.78435059 91.22734283 83.85703125 91.22763489 82.90161133 91.22793579 C79.84446776 91.22654535 76.78756961 91.21099749 73.73046875 91.1953125 C71.6076928 91.19158136 69.48491513 91.18873486 67.36213684 91.18673706 C61.78080472 91.1791086 56.19957705 91.15946679 50.61828613 91.1373291 C43.91854256 91.11325246 37.21876403 91.10408595 30.51898956 91.09242249 C20.34592045 91.07304203 10.17308041 91.03471383 0 91 C0 60.97 0 30.94 0 0 Z " fill="#FEFEFE" transform="translate(1958,1197)"/>
<path d="M0 0 C0.97176178 -0.00960754 1.94352356 -0.01921509 2.94473267 -0.02911377 C3.99470428 -0.03336365 5.0446759 -0.03761353 6.12646484 -0.04199219 C7.21067719 -0.04769226 8.29488953 -0.05339233 9.41195679 -0.05926514 C11.7101748 -0.06871815 14.00840639 -0.07525031 16.30664062 -0.07910156 C19.80281685 -0.08877153 23.29839626 -0.11977798 26.79443359 -0.15136719 C29.0301072 -0.15790102 31.265785 -0.16315 33.50146484 -0.16699219 C35.05820419 -0.18551239 35.05820419 -0.18551239 36.64639282 -0.20440674 C44.22810395 -0.1814391 50.55641096 0.93574675 57.08740234 4.91113281 C63.21903929 11.40345429 62.65310395 18.87411076 62.61083984 27.32128906 C62.61371002 28.58452499 62.6165802 29.84776093 62.61953735 31.14927673 C62.62157418 33.81313276 62.61759318 36.47615619 62.60351562 39.13989258 C62.58640683 42.54158908 62.59628717 45.94257621 62.61423302 49.34424686 C62.62772161 52.60745252 62.61825976 55.87057413 62.61083984 59.13378906 C62.61691254 60.34954117 62.62298523 61.56529327 62.62924194 62.81788635 C62.56632377 70.39054702 62.06618053 75.23940753 56.58740234 80.84863281 C49.71711871 86.10175455 41.72080368 86.61277041 33.36865234 86.55957031 C32.35951782 86.56244049 31.3503833 86.56531067 30.31066895 86.56826782 C28.18952875 86.57029784 26.06836938 86.56484287 23.94726562 86.55224609 C20.72141205 86.53617769 17.49681122 86.55213164 14.27099609 86.57128906 C12.19937878 86.56930644 10.12776223 86.56546238 8.05615234 86.55957031 C6.62607849 86.56867935 6.62607849 86.56867935 5.16711426 86.57797241 C-3.04509642 86.49274999 -10.77471939 85.17401108 -16.78759766 79.16113281 C-20.12429955 74.39441582 -20.90471287 70.5282796 -20.96459961 64.78515625 C-20.97743484 63.71013855 -20.99027008 62.63512085 -21.00349426 61.52752686 C-21.0108812 60.37021057 -21.01826813 59.21289429 -21.02587891 58.02050781 C-21.03395065 56.82435852 -21.0420224 55.62820923 -21.05033875 54.39581299 C-21.06416704 51.86398768 -21.0748948 49.33214382 -21.08276367 46.80029297 C-21.09997014 42.93974256 -21.14386889 39.08004997 -21.18798828 35.21972656 C-21.19811619 32.75749326 -21.20663198 30.2952527 -21.21337891 27.83300781 C-21.23964104 26.10917877 -21.23964104 26.10917877 -21.26643372 24.3505249 C-21.24793005 17.47149205 -20.49240121 13.00796308 -16.78759766 7.16113281 C-14.53369141 5.10253906 -14.53369141 5.10253906 -12.22509766 3.72363281 C-11.46068359 3.25054688 -10.69626953 2.77746094 -9.90869141 2.29003906 C-6.4991646 0.4753922 -3.80007057 0.03036724 0 0 Z " fill="#4F4F4F" transform="translate(1329.78759765625,1363.8388671875)"/>
<path d="M0 0 C5.61 0 11.22 0 17 0 C21.5612373 14.12362819 26.04296817 28.2611115 30.25585938 42.49267578 C31.61783952 47.08176243 32.99780388 51.66546172 34.375 56.25 C34.88288383 57.94268693 35.39070331 59.63539317 35.8984375 61.328125 C36.26195312 62.53984375 36.62546875 63.7515625 37 65 C38.5693002 62.07587486 39.59616591 59.25037911 40.48046875 56.0546875 C40.75407227 55.07218018 41.02767578 54.08967285 41.30957031 53.07739258 C41.74414551 51.49220825 41.74414551 51.49220825 42.1875 49.875 C42.49139648 48.78147217 42.79529297 47.68794434 43.10839844 46.5612793 C44.74676206 40.64304851 46.34569609 34.71552885 47.91015625 28.77734375 C48.3728894 27.0286499 48.3728894 27.0286499 48.8449707 25.24462891 C49.43691008 22.99982616 50.02293185 20.7534525 50.60229492 18.50537109 C52.23925437 12.29204452 53.80647806 6.68883335 57.9375 1.625 C62.71452187 -0.9097463 67.70359108 -0.78178376 73 0 C77.17317101 1.88641887 79.08024212 3.86122787 81 8 C81.89812044 10.90537456 82.57596501 13.84820501 83.25 16.8125 C85.38989721 25.80090744 87.87147283 34.65631943 90.50097656 43.51293945 C91.92862366 48.32325785 93.34557034 53.13643808 94.7109375 57.96484375 C94.9589209 58.83616943 95.2069043 59.70749512 95.46240234 60.60522461 C96 63 96 63 96 67 C96.66 67 97.32 67 98 67 C98.10272217 66.05721191 98.20544434 65.11442383 98.3112793 64.14306641 C99.02495707 59.18080355 100.53616917 54.48858584 102.01953125 49.7109375 C102.31937424 48.73065582 102.61921722 47.75037415 102.92814636 46.74038696 C103.88472858 43.6170729 104.84848975 40.49602841 105.8125 37.375 C106.44904365 35.30092726 107.08511581 33.22670975 107.72070312 31.15234375 C108.93557025 27.18982176 110.15460437 23.22862409 111.37744141 19.26855469 C112.36336069 16.07412759 113.34199446 12.877819 114.30615234 9.67675781 C114.66273926 8.49694336 115.01932617 7.31712891 115.38671875 6.1015625 C115.68151123 5.11752441 115.97630371 4.13348633 116.2800293 3.11962891 C117 1 117 1 118 0 C120.86267567 -0.07325168 123.700719 -0.09238205 126.5625 -0.0625 C127.36880859 -0.05798828 128.17511719 -0.05347656 129.00585938 -0.04882812 C131.00393756 -0.03700518 133.00197783 -0.01906914 135 0 C131.50090717 13.38249538 127.35432574 26.58525172 123.3046875 39.80859375 C123.065224 40.59086838 122.8257605 41.37314301 122.57904053 42.17912292 C121.37434405 46.11408877 120.16811171 50.04857108 118.95898438 53.98217773 C118.50112056 55.47504199 118.04343558 56.96796112 117.5859375 58.4609375 C117.36387634 59.1838649 117.14181519 59.9067923 116.9130249 60.65162659 C115.13669445 66.4680257 113.50353866 72.31605175 111.93017578 78.19091797 C110.42844071 82.72607906 108.28700381 85.63823632 104.1171875 88.12109375 C99.39205429 90.08263429 94.45424854 89.46645708 89.6875 87.9375 C82.35434509 82.65080693 81.198089 73.08126482 79.125 64.8125 C78.43378444 62.11578118 77.73511287 59.42102418 77.03515625 56.7265625 C76.86340378 56.06228745 76.69165131 55.39801239 76.51469421 54.71360779 C74.81963119 48.20522771 72.88761449 41.77752515 70.81494141 35.38012695 C69.19900304 30.24305314 68.46118352 25.36987249 68 20 C67.34 20 66.68 20 66 20 C65.89171875 21.28261719 65.7834375 22.56523438 65.671875 23.88671875 C65.09400726 29.06227195 63.76356048 33.84267744 62.25 38.8125 C60.1141918 46.02648507 58.14678487 53.25065997 56.375 60.5625 C51.04086169 82.27419217 51.04086169 82.27419217 46 87 C41.72332383 89.53532912 37.85658624 89.54805227 33 89 C28.68659127 87.40244121 26.43690286 85.84902563 24 82 C23.11200322 79.5649336 22.32581093 77.18449324 21.6027832 74.70239258 C21.28314968 73.64253631 21.28314968 73.64253631 20.95705891 72.56126881 C20.51463913 71.09268499 20.07552727 69.62310077 19.63965225 68.15256119 C19.04519448 66.15208872 18.43947887 64.15558386 17.82723999 62.16049194 C16.6622268 58.36323504 15.50718601 54.56302247 14.35546875 50.76171875 C14.15043543 50.08508493 13.94540211 49.40845112 13.73415565 48.71131325 C12.65681771 45.15492922 11.58058547 41.59821255 10.50512695 38.04125977 C9.62003698 35.11478181 8.73252655 32.18905378 7.84301758 29.26391602 C6.75727092 25.69340629 5.67555056 22.12170083 4.59676552 18.5490818 C4.18790125 17.19745221 3.77762504 15.84624888 3.36589622 14.49548912 C2.79498953 12.62145925 2.22975379 10.74570457 1.66479492 8.86987305 C1.34234299 7.80560593 1.01989105 6.74133881 0.68766785 5.64482117 C0 3 0 3 0 0 Z " fill="#505050" transform="translate(1098,1363)"/>
<path d="M0 0 C10.89 0 21.78 0 33 0 C33 49.17 33 98.34 33 149 C22.11 149 11.22 149 0 149 C0 99.83 0 50.66 0 0 Z " fill="#26A1C4" transform="translate(1666,1168)"/>
<path d="M0 0 C10.02375 -0.04125 20.0475 -0.0825 30.375 -0.125 C33.5207959 -0.14320801 36.6665918 -0.16141602 39.90771484 -0.18017578 C42.425454 -0.1860218 44.94319505 -0.1911171 47.4609375 -0.1953125 C49.39223511 -0.2106604 49.39223511 -0.2106604 51.36254883 -0.22631836 C60.91172293 -0.22815368 72.06579137 -0.16720147 80 6 C85.5070797 11.68346304 84.59250399 18.47634175 84.5 26 C84.52320313 27.8871875 84.52320313 27.8871875 84.546875 29.8125 C84.4979696 41.35417326 84.4979696 41.35417326 80 46 C69.91004282 54.94592858 54.55829048 53.0195438 42 53 C42.84820313 53.66644531 43.69640625 54.33289062 44.5703125 55.01953125 C49.56510417 58.94401042 54.55989583 62.86848958 59.5546875 66.79296875 C60.41078613 67.46549683 60.41078613 67.46549683 61.28417969 68.15161133 C62.42837626 69.05078573 63.57225643 69.95036288 64.71582031 70.8503418 C67.80052794 73.27708878 70.89182383 75.69483952 73.9921875 78.1015625 C74.641875 78.60751953 75.2915625 79.11347656 75.9609375 79.63476562 C77.21679589 80.61254109 78.47454985 81.58788775 79.734375 82.56054688 C81.17461802 83.68387006 82.59018199 84.83872134 84 86 C84 86.33 84 86.66 84 87 C63.71420661 89.3702289 63.71420661 89.3702289 55.44042969 82.90795898 C52.83011476 80.59355419 50.30176698 78.2152365 47.82617188 75.75732422 C44.98102469 73.0194406 41.88214701 70.64732867 38.75 68.25 C37.61570789 67.36090352 36.48159028 66.47158436 35.34765625 65.58203125 C31.03468654 62.23395432 26.6391186 58.99792944 22.23046875 55.77734375 C20 54 20 54 19 52 C18.625 48.625 18.625 48.625 19 45 C21.86349856 41.87551996 23.56168215 41.05758282 27.79296875 40.50170898 C29.25766498 40.48083652 30.72274317 40.48002675 32.1875 40.49609375 C33.35768677 40.4819619 33.35768677 40.4819619 34.55151367 40.46754456 C37.03461187 40.43896483 39.51675089 40.43581366 42 40.4375 C44.48310865 40.43388663 46.96552229 40.42429742 49.44848633 40.39674377 C50.98990126 40.38001911 52.53154491 40.37702981 54.07299805 40.38975525 C58.55469029 40.34594967 61.44059501 39.78014954 65 37 C66.57255046 33.85489907 66.22572668 30.51234555 66.25 27.0625 C66.270625 26.33353516 66.29125 25.60457031 66.3125 24.85351562 C66.36243227 20.79927194 66.36243227 20.79927194 64.859375 17.12109375 C59.44737743 13.85797757 54.00723373 13.67168305 47.8828125 13.5859375 C47.12218506 13.56829346 46.36155762 13.55064941 45.57788086 13.5324707 C42.76046143 13.46982393 39.94270107 13.42334797 37.125 13.375 C30.81375 13.25125 24.5025 13.1275 18 13 C18 37.42 18 61.84 18 87 C12.06 87 6.12 87 0 87 C0 58.29 0 29.58 0 0 Z " fill="#505050" transform="translate(1476,1363)"/>
<path d="M0 0 C1.216875 0.00386719 2.43375 0.00773437 3.6875 0.01171875 C6.92727408 0.30589635 8.31808619 0.60576827 11 2.3125 C12.71655273 4.42529297 12.71655273 4.42529297 14.43359375 7.0546875 C15.07570801 8.02817139 15.71782227 9.00165527 16.37939453 10.00463867 C17.05856934 11.05498291 17.73774414 12.10532715 18.4375 13.1875 C19.50266846 14.8103894 19.50266846 14.8103894 20.58935547 16.46606445 C22.73607552 19.74191597 24.86971945 23.02594012 27 26.3125 C28.14952016 28.07956985 29.29924223 29.84650837 30.44921875 31.61328125 C33.63326914 36.5127241 36.81663369 41.41261264 40 46.3125 C44.62 53.2425 49.24 60.1725 54 67.3125 C54.33 45.2025 54.66 23.0925 55 0.3125 C60.28 0.3125 65.56 0.3125 71 0.3125 C71.15825605 10.76992092 71.28663104 21.22654445 71.3626852 31.68489265 C71.39919086 36.54135816 71.44869121 41.3969608 71.52807617 46.25292969 C71.60423308 50.94087045 71.64601036 55.6279823 71.6641407 60.31649399 C71.67705764 62.10354537 71.70228289 63.89055224 71.7401104 65.67724991 C72.02384876 79.63639258 72.02384876 79.63639258 69.51164246 83.7490387 C65.81737008 87.0689124 62.45247687 88.11466253 57.4375 88 C56.36371094 88.00386719 55.28992188 88.00773437 54.18359375 88.01171875 C46.5882624 86.34354168 43.30599962 80.15979621 39.34106445 73.99780273 C38.65101318 72.90540283 37.96096191 71.81300293 37.25 70.6875 C36.13635847 68.94960697 35.01904366 67.21411148 33.90156555 65.47868347 C33.1261261 64.27399515 32.35179702 63.06859144 31.57853699 61.86250305 C27.24014479 55.10256007 22.77930204 48.42548336 18.3125 41.75 C17.56337792 40.62880939 16.81435205 39.50755449 16.06542969 38.38623047 C14.73209549 36.39048902 13.39827775 34.39507042 12.0637207 32.40014648 C9.37226022 28.37330386 6.68668632 24.34252948 4 20.3125 C3.67 42.0925 3.34 63.8725 3 86.3125 C-2.61 86.3125 -8.22 86.3125 -14 86.3125 C-14.06779634 76.22892477 -14.12282797 66.1455011 -14.15543652 56.06174946 C-14.17108754 51.37937764 -14.19231556 46.69716994 -14.22631836 42.01489258 C-14.25893186 37.49560624 -14.27685725 32.97647769 -14.28463173 28.45708275 C-14.29017166 26.73350732 -14.30098984 25.00994046 -14.31719017 23.28643227 C-14.33899113 20.8708599 -14.34196585 18.45593824 -14.34057617 16.0402832 C-14.351362 15.32890198 -14.36214783 14.61752075 -14.3732605 13.88458252 C-14.33978646 8.50163872 -12.97624333 5.33726716 -9.25 1.51953125 C-6.09343344 -0.17383519 -3.56078702 -0.04903626 0 0 Z " fill="#4F4F4F" transform="translate(642,1363.6875)"/>
<path d="M0 0 C1.29824707 0.00424484 2.59649414 0.00848969 3.93408203 0.01286316 C7.36022757 0.02423453 10.78598234 0.05363332 14.2119751 0.0869751 C17.7180859 0.11784395 21.22426078 0.13140415 24.73046875 0.14648438 C31.59132106 0.17851209 38.45185145 0.23121531 45.3125 0.29296875 C45.3125 4.58296875 45.3125 8.87296875 45.3125 13.29296875 C42.99677979 13.3069873 42.99677979 13.3069873 40.63427734 13.32128906 C34.89765745 13.36120955 29.16157266 13.42697538 23.42529297 13.50048828 C20.94424319 13.52868571 18.46310378 13.5499063 15.98193359 13.56396484 C12.41196853 13.58541037 8.84307972 13.63207217 5.2734375 13.68359375 C3.61373428 13.68543671 3.61373428 13.68543671 1.92050171 13.68731689 C0.35956284 13.71689484 0.35956284 13.71689484 -1.23291016 13.74707031 C-2.59858627 13.76039398 -2.59858627 13.76039398 -3.99185181 13.77398682 C-7.48699296 14.26639391 -7.48699296 14.26639391 -12.6875 18.29296875 C-13.0175 24.56296875 -13.3475 30.83296875 -13.6875 37.29296875 C4.7925 37.29296875 23.2725 37.29296875 42.3125 37.29296875 C42.3125 41.58296875 42.3125 45.87296875 42.3125 50.29296875 C23.8325 50.29296875 5.3525 50.29296875 -13.6875 50.29296875 C-14.75979383 67.10973473 -14.75979383 67.10973473 -8.6875 72.29296875 C-5.74440137 73.27400163 -3.7378097 73.44518562 -0.6652832 73.49829102 C0.86596443 73.52820885 0.86596443 73.52820885 2.42814636 73.55873108 C3.52822525 73.57544357 4.62830414 73.59215607 5.76171875 73.609375 C7.45334892 73.64054665 7.45334892 73.64054665 9.17915344 73.67234802 C12.7860396 73.73779722 16.39299929 73.79670719 20 73.85546875 C22.44336702 73.89865836 24.88672656 73.94227279 27.33007812 73.98632812 C33.32414316 74.09347395 39.31828224 74.19475466 45.3125 74.29296875 C45.3125 78.25296875 45.3125 82.21296875 45.3125 86.29296875 C37.6103835 86.33826507 29.90831707 86.37491102 22.20609951 86.39659309 C18.62912968 86.40700266 15.05225619 86.42110978 11.4753418 86.44384766 C8.01940535 86.46567746 4.56356122 86.47755861 1.10756111 86.48272324 C-0.84381533 86.48818307 -2.79515496 86.50377968 -4.74647522 86.51956177 C-19.86927536 86.52146437 -19.86927536 86.52146437 -26 80.98046875 C-26.65613281 80.40683594 -27.31226563 79.83320312 -27.98828125 79.2421875 C-31.33196396 75.40656067 -31.93884883 71.56327169 -31.9621582 66.58813477 C-31.97169022 65.46669571 -31.98122223 64.34525665 -31.99104309 63.18983459 C-31.99013168 61.98765793 -31.98922028 60.78548126 -31.98828125 59.546875 C-31.99256638 58.30300522 -31.9968515 57.05913544 -32.00126648 55.77757263 C-32.00847238 52.47710023 -32.00539045 49.17681059 -31.99969482 45.87634277 C-31.9999995 43.85877257 -32.01003734 41.84149597 -32.02368164 39.82397461 C-32.04818521 35.93980153 -32.05233674 32.05611576 -32.05078125 28.171875 C-32.059991 26.97172256 -32.06920074 25.77157013 -32.07868958 24.53504944 C-32.04111968 17.75190585 -31.7381851 12.83794207 -27.14453125 7.5 C-26.33048828 6.80970703 -26.33048828 6.80970703 -25.5 6.10546875 C-24.97019531 5.63753906 -24.44039062 5.16960937 -23.89453125 4.6875 C-16.16427282 -0.19692878 -8.90365247 -0.11035539 0 0 Z " fill="#505050" transform="translate(828.6875,1362.70703125)"/>
<path d="M0 0 C1.2038031 0.00424484 2.4076062 0.00848969 3.64788818 0.01286316 C7.44778961 0.0294958 11.24713711 0.06711923 15.046875 0.10546875 C17.64191936 0.1205355 20.23697213 0.13422039 22.83203125 0.14648438 C29.15385538 0.17934879 35.47527167 0.23102339 41.796875 0.29296875 C41.796875 4.58296875 41.796875 8.87296875 41.796875 13.29296875 C39.52659424 13.31484253 39.52659424 13.31484253 37.21044922 13.3371582 C31.58569928 13.39520682 25.9613469 13.47244021 20.33691406 13.55541992 C17.9043626 13.58863822 15.47173463 13.61667974 13.0390625 13.6394043 C9.53873142 13.67300633 6.03909945 13.72532709 2.5390625 13.78125 C0.91216995 13.79083488 0.91216995 13.79083488 -0.74758911 13.8006134 C-6.25882527 13.90750125 -10.49747889 14.07380951 -15.203125 17.29296875 C-16.54596149 19.97864172 -16.44600019 22.17043728 -16.515625 25.16796875 C-16.55300781 26.21726562 -16.59039063 27.2665625 -16.62890625 28.34765625 C-16.1054698 31.96849188 -15.01881357 33.04668659 -12.203125 35.29296875 C-9.17513966 36.80696142 -6.02563594 36.44963678 -2.703125 36.46875 C-1.16014303 36.49197633 0.38282572 36.51609474 1.92578125 36.54101562 C4.35018392 36.57590087 6.77410923 36.60534148 9.19873047 36.61889648 C29.9801741 36.75772422 29.9801741 36.75772422 36.74804688 43.13012695 C42.15990018 49.13482419 42.00822549 53.64880668 42.046875 61.54296875 C42.0675 62.58066406 42.088125 63.61835937 42.109375 64.6875 C42.1379284 70.27682872 42.10726385 74.54882872 38.796875 79.29296875 C36.96484375 81.12109375 36.96484375 81.12109375 34.984375 82.54296875 C34.33855469 83.0225 33.69273438 83.50203125 33.02734375 83.99609375 C28.37953652 86.69849655 24.02953097 87.54289431 18.69970703 87.52001953 C16.92855026 87.51979294 16.92855026 87.51979294 15.12161255 87.51956177 C13.86202728 87.5092392 12.60244202 87.49891663 11.3046875 87.48828125 C10.00361053 87.48545135 8.70253357 87.48262146 7.36203003 87.47970581 C3.9195168 87.4721055 0.47717497 87.45248848 -2.965271 87.43029785 C-6.48463625 87.40976136 -10.00402947 87.40068748 -13.5234375 87.390625 C-20.41674375 87.36923874 -27.30990848 87.3340864 -34.203125 87.29296875 C-34.203125 83.00296875 -34.203125 78.71296875 -34.203125 74.29296875 C-32.65407471 74.27838623 -31.10502441 74.26380371 -29.5090332 74.2487793 C-23.75944993 74.1907883 -18.01025795 74.11355461 -12.26098633 74.03051758 C-9.77309522 73.99727218 -7.28512876 73.96923909 -4.79711914 73.9465332 C-1.21988832 73.91298105 2.35665219 73.86066283 5.93359375 73.8046875 C7.04522385 73.79829758 8.15685394 73.79190765 9.3021698 73.7853241 C10.34287125 73.76552994 11.38357269 73.74573578 12.45581055 73.7253418 C13.3684819 73.71423874 14.28115326 73.70313568 15.22148132 73.69169617 C18.33384495 73.20983403 20.25162072 72.11961125 22.796875 70.29296875 C23.69554928 68.42792838 23.69554928 68.42792838 23.796875 66.29296875 C23.87550781 65.48859375 23.95414063 64.68421875 24.03515625 63.85546875 C24.28688561 58.45346602 24.28688561 58.45346602 21.984375 53.73046875 C18.01829007 51.12418437 14.64589941 51.13702552 10.00390625 51.046875 C8.637364 51.01391123 7.27082769 50.98070005 5.90429688 50.94726562 C3.76298463 50.9000937 1.62169194 50.85569614 -0.51977539 50.81616211 C-12.49714046 50.58441376 -22.58958534 50.132995 -31.875 41.93359375 C-35.64254118 37.25959255 -34.88775616 31.50342591 -34.765625 25.79296875 C-34.77658203 24.67792969 -34.78753906 23.56289062 -34.79882812 22.4140625 C-34.72736067 14.41923632 -33.5568143 10.96106643 -28.203125 5.10546875 C-19.70616151 -0.02811336 -9.65215055 -0.13096974 0 0 Z " fill="#505050" transform="translate(1830.203125,1362.70703125)"/>
<path d="M0 0 C5.94 0 11.88 0 18 0 C18.495 19.8 18.495 19.8 19 40 C24.23730686 34.72348535 24.23730686 34.72348535 29.46875 29.44116211 C33.58500325 25.30957186 37.79290047 21.36860298 42.21386719 17.56567383 C44.6332262 15.44493171 46.88055462 13.17870466 49.125 10.875 C50.72883003 9.2291023 52.35449774 7.60423574 54 6 C55.299375 4.62134766 55.299375 4.62134766 56.625 3.21484375 C60.82798051 -0.22652284 65.70933174 0.46001461 70.875 0.6875 C71.84953125 0.71005859 72.8240625 0.73261719 73.828125 0.75585938 C76.22035515 0.81449247 78.6093615 0.89648847 81 1 C74.87869263 8.33293457 74.87869263 8.33293457 71.3125 11.25 C67.86983641 14.17264366 64.66694854 17.28467205 61.5 20.5 C57.82024533 24.23063554 54.0462946 27.76498277 50.05859375 31.1640625 C45.85367497 34.91417982 41.9460524 38.98117205 38 43 C40.33487948 46.02764591 42.61433244 48.69260258 45.5625 51.125 C49.04282508 54.09332195 52.29213333 57.24299389 55.5 60.5 C58.55308699 63.59518778 61.623261 66.6193633 64.9375 69.4375 C70.61663466 74.27834243 75.76384338 79.69134275 81 85 C81.66 85.66 82.32 86.32 83 87 C64.08580091 88.90045705 64.08580091 88.90045705 58.4609375 85.04296875 C55.95802665 82.68830194 53.7043405 80.30981758 51.49267578 77.68994141 C48.74511428 74.57927397 45.62476422 71.85738684 42.5625 69.0625 C41.2967318 67.88175579 40.03240359 66.69946598 38.76953125 65.515625 C34.57314525 61.59595957 30.35264502 57.70265231 26.12329102 53.81860352 C23.69858791 51.58784538 21.33063991 49.33063991 19 47 C18.67 60.2 18.34 73.4 18 87 C12.06 87 6.12 87 0 87 C0 58.29 0 29.58 0 0 Z " fill="#535353" transform="translate(1641,1363)"/>
<path d="M0 0 C2.06975081 -0.00966722 4.13849153 -0.04068502 6.20800781 -0.07226562 C8.18414063 -0.08 8.18414063 -0.08 10.20019531 -0.08789062 C11.4012793 -0.09723633 12.60236328 -0.10658203 13.83984375 -0.11621094 C18.45608787 0.35378323 22.32043868 1.67341794 26.01715088 4.54023743 C27.78578526 6.81170565 27.73303085 8.24520315 27.76074219 11.10717773 C27.77665405 12.09507797 27.79256592 13.08297821 27.80895996 14.10081482 C27.80916138 15.16647171 27.80936279 16.2321286 27.80957031 17.33007812 C27.8209906 18.97418419 27.8209906 18.97418419 27.8326416 20.65150452 C27.84345236 22.97069011 27.84629177 25.28992443 27.84179688 27.60913086 C27.84082494 31.16081828 27.88243027 34.71034363 27.92675781 38.26171875 C27.93196488 40.51366736 27.93465301 42.7656235 27.93457031 45.01757812 C27.95916321 46.61302711 27.95916321 46.61302711 27.98425293 48.2407074 C27.91504047 55.61202125 27.91504047 55.61202125 24.92871094 58.87915039 C20.74515844 61.0794622 17.78418965 61.40071584 13.10253906 61.40820312 C12.02586723 61.41319572 12.02586723 61.41319572 10.92744446 61.41828918 C9.40679566 61.4233555 7.88613574 61.4256976 6.36547852 61.42553711 C4.04782546 61.42771604 1.73065426 61.44585335 -0.58691406 61.46484375 C-2.06542806 61.46777932 -3.54394432 61.46976302 -5.02246094 61.47070312 C-5.71221512 61.47788864 -6.4019693 61.48507416 -7.11262512 61.49247742 C-11.06493538 61.47388024 -14.18480657 61.1825521 -17.65917969 59.24023438 C-20.35194928 56.27886843 -21.03956966 54.34220887 -21.07910156 50.36743164 C-21.09501343 49.40285538 -21.11092529 48.43827911 -21.12731934 47.44447327 C-21.12752075 46.40898849 -21.12772217 45.37350372 -21.12792969 44.30664062 C-21.13554321 43.23655258 -21.14315674 42.16646454 -21.15100098 41.06394958 C-21.16180119 38.80201551 -21.16465542 36.54003156 -21.16015625 34.27807617 C-21.15918416 30.81865216 -21.20080442 27.36144739 -21.24511719 23.90234375 C-21.25032437 21.70378067 -21.25301238 19.50520987 -21.25292969 17.30664062 C-21.26932495 16.27318008 -21.28572021 15.23971954 -21.3026123 14.17494202 C-21.23367119 7.00532765 -21.23367119 7.00532765 -18.30957031 3.11108398 C-12.70716739 -0.84352302 -6.61568584 0.01869718 0 0 Z " fill="#FDFDFD" transform="translate(1347.6591796875,1375.759765625)"/>
<path d="M0 0 C25.08 0 50.16 0 76 0 C76 4.29 76 8.58 76 13 C66.1 13 56.2 13 46 13 C46 37.42 46 61.84 46 87 C40.39 87 34.78 87 29 87 C29 62.58 29 38.16 29 13 C19.43 13 9.86 13 0 13 C0 8.71 0 4.42 0 0 Z " fill="#4F4F4F" transform="translate(954,1363)"/>
<path d="M0 0 C2.64107068 2.509315 4.7224661 4.88335049 6.55859375 8.02734375 C7.02048096 8.80924072 7.48236816 9.5911377 7.95825195 10.39672852 C8.44640381 11.23518311 8.93455566 12.0736377 9.4375 12.9375 C10.50128283 14.73776061 11.56643397 16.53721324 12.6328125 18.3359375 C13.18356445 19.26631836 13.73431641 20.19669922 14.30175781 21.15527344 C17.08795095 25.82242733 19.94686148 30.44383356 22.8125 35.0625 C23.35793457 35.94325195 23.90336914 36.82400391 24.46533203 37.73144531 C27.88666963 43.24365843 31.35689163 48.71857398 34.92578125 54.13671875 C36 56 36 56 36 58 C12.57 58 -10.86 58 -35 58 C-28.25683513 45.63753107 -28.25683513 45.63753107 -25.625 41.484375 C-25.03855713 40.55367187 -24.45211426 39.62296875 -23.84790039 38.6640625 C-23.23809326 37.70242188 -22.62828613 36.74078125 -22 35.75 C-14.54177373 23.90827408 -7.24500892 11.97309938 0 0 Z " fill="#FCFDFE" transform="translate(898,1199)"/>
<path d="M0 0 C2.64107068 2.509315 4.7224661 4.88335049 6.55859375 8.02734375 C7.02048096 8.80924072 7.48236816 9.5911377 7.95825195 10.39672852 C8.44640381 11.23518311 8.93455566 12.0736377 9.4375 12.9375 C10.50128283 14.73776061 11.56643397 16.53721324 12.6328125 18.3359375 C13.18356445 19.26631836 13.73431641 20.19669922 14.30175781 21.15527344 C17.08795095 25.82242733 19.94686148 30.44383356 22.8125 35.0625 C23.35793457 35.94325195 23.90336914 36.82400391 24.46533203 37.73144531 C27.88666963 43.24365843 31.35689163 48.71857398 34.92578125 54.13671875 C36 56 36 56 36 58 C12.57 58 -10.86 58 -35 58 C-28.25683513 45.63753107 -28.25683513 45.63753107 -25.625 41.484375 C-25.03855713 40.55367187 -24.45211426 39.62296875 -23.84790039 38.6640625 C-23.23809326 37.70242188 -22.62828613 36.74078125 -22 35.75 C-14.54177373 23.90827408 -7.24500892 11.97309938 0 0 Z " fill="#FCFDFE" transform="translate(500,1199)"/>
<path d="M0 0 C5.28 0 10.56 0 16 0 C16 28.38 16 56.76 16 86 C10.72 86 5.44 86 0 86 C0 57.62 0 29.24 0 0 Z " fill="#4D4D4D" transform="translate(1642,1364)"/>
</svg>
