<?xml version="1.0" encoding="UTF-8"?>
<svg version="1.1" xmlns="http://www.w3.org/2000/svg" width="524" height="183">
<path d="M0 0 C1.06725311 -0.03634552 2.13450623 -0.07269104 3.23410034 -0.11013794 C4.65191551 -0.17430153 4.65191551 -0.17430153 6.09837341 -0.23976135 C9.45003109 0.29439921 10.60549214 1.50152245 12.63815308 4.16500854 C12.63815308 7.29000854 12.63815308 7.29000854 11.63815308 10.16500854 C8.54745451 12.25559623 6.07981525 12.37888055 2.41165161 12.25366211 C0.82574974 12.20730118 0.82574974 12.20730118 -0.79219055 12.16000366 C-1.94665176 12.11541016 -3.10111298 12.07081665 -4.29055786 12.02487183 C-5.51033829 11.9861496 -6.73011871 11.94742737 -7.98686218 11.90753174 C-11.32778338 11.79939408 -14.66812325 11.6818335 -18.00855923 11.56008005 C-21.501009 11.43501575 -24.99384802 11.32199772 -28.48666382 11.20770264 C-35.09900029 10.9894948 -41.71091522 10.76045173 -48.32274747 10.52751625 C-55.85083392 10.26282911 -63.37931044 10.01021965 -70.90784407 9.75862527 C-86.3929851 9.24085986 -101.87756607 8.70792504 -117.36184692 8.16500854 C-117.36184692 6.84500854 -117.36184692 5.52500854 -117.36184692 4.16500854 C-107.07541046 3.79037535 -96.78894828 3.41645633 -86.50245571 3.04336643 C-81.72225703 2.86996847 -76.94206642 2.69635496 -72.16189575 2.52218628 C-53.7409634 1.85118937 -35.31992069 1.18186461 -16.89700317 0.56735229 C-15.68628647 0.52566422 -14.47556976 0.48397614 -13.22816467 0.44102478 C-10.99997254 0.368357 -8.77149167 0.30388933 -6.54278564 0.24920654 C-4.36103985 0.19145673 -2.17988575 0.10699469 0 0 Z " fill="#E9D396" transform="translate(184.36184692382813,85.83499145507813)"/>
<path d="M0 0 C4.46677866 -0.09204581 8.93024383 -0.17160663 13.3972168 -0.21972656 C14.9152341 -0.23979203 16.43317459 -0.26705134 17.95092773 -0.30175781 C20.13805122 -0.35050393 22.32414952 -0.37301805 24.51171875 -0.390625 C25.82615967 -0.41157227 27.14060059 -0.43251953 28.49487305 -0.45410156 C32.54781591 0.07097148 34.18699214 1.08555034 37 4 C37.41796875 6.5078125 37.41796875 6.5078125 37.1875 9.125 C36.94733836 11.69023455 36.94733836 11.69023455 37 14 C37.66 14.66 38.32 15.32 39 16 C39.37109375 18.0234375 39.37109375 18.0234375 39.4375 20.375 C39.49744141 21.53128906 39.49744141 21.53128906 39.55859375 22.7109375 C38.7093426 26.19108556 36.98452348 27.1033533 34 29 C31.21471351 29.3428839 28.84469822 29.47029734 26.07421875 29.390625 C25.32662796 29.38496521 24.57903717 29.37930542 23.80879211 29.37347412 C21.43436089 29.35118468 19.06147062 29.30100656 16.6875 29.25 C15.07228751 29.22992519 13.45705123 29.21167613 11.84179688 29.1953125 C7.89346831 29.15475443 3.94844695 29.07646266 0 29 C0 19.43 0 9.86 0 0 Z M7 4 C7 6.97 7 9.94 7 13 C10.45826342 13.05789006 13.91640293 13.09355821 17.375 13.125 C18.35984375 13.14175781 19.3446875 13.15851563 20.359375 13.17578125 C21.30039062 13.18222656 22.24140625 13.18867187 23.2109375 13.1953125 C24.08024902 13.20578613 24.94956055 13.21625977 25.84521484 13.22705078 C28.21345939 13.20595109 28.21345939 13.20595109 30 11 C30.25005386 7.95817107 30.25005386 7.95817107 30 5 C28.98363023 3.76078789 28.98363023 3.76078789 26.86694336 3.88647461 C25.49227905 3.89432983 25.49227905 3.89432983 24.08984375 3.90234375 C22.60581055 3.90717773 22.60581055 3.90717773 21.09179688 3.91210938 C19.53041992 3.92467773 19.53041992 3.92467773 17.9375 3.9375 C16.37032227 3.94426758 16.37032227 3.94426758 14.77148438 3.95117188 C12.1809334 3.96300087 9.59049441 3.97948311 7 4 Z M7 16 C7 18.97 7 21.94 7 25 C10.79160297 25.05786668 14.58309311 25.09355054 18.375 25.125 C19.99535156 25.15013672 19.99535156 25.15013672 21.6484375 25.17578125 C23.1953125 25.18544922 23.1953125 25.18544922 24.7734375 25.1953125 C25.72653809 25.20578613 26.67963867 25.21625977 27.66162109 25.22705078 C30.1923213 25.23131867 30.1923213 25.23131867 32 23 C32.33333333 20.5 32.33333333 20.5 32 18 C30.1923213 15.76868133 30.1923213 15.76868133 27.66162109 15.77294922 C26.23197021 15.78865967 26.23197021 15.78865967 24.7734375 15.8046875 C23.7421875 15.81113281 22.7109375 15.81757812 21.6484375 15.82421875 C20.02808594 15.84935547 20.02808594 15.84935547 18.375 15.875 C16.74304688 15.88853516 16.74304688 15.88853516 15.078125 15.90234375 C12.38519848 15.92596591 9.69270745 15.95890444 7 16 Z " fill="#E0C584" transform="translate(375,76)"/>
<path d="M0 0 C2.01124504 -0.01190949 4.01943009 -0.06112889 6.0300293 -0.11157227 C7.94138672 -0.12220703 7.94138672 -0.12220703 9.89135742 -0.13305664 C11.05465576 -0.14651123 12.2179541 -0.15996582 13.41650391 -0.17382812 C17.56494288 0.61146123 19.03159914 2.11863528 21.58276367 5.42553711 C22.19799805 7.67382812 22.19799805 7.67382812 22.17651367 9.92944336 C22.17393555 10.75250977 22.17135742 11.57557617 22.16870117 12.42358398 C22.12616211 13.69298828 22.12616211 13.69298828 22.08276367 14.98803711 C22.08663086 16.26324219 22.08663086 16.26324219 22.09057617 17.56420898 C22.03394573 21.17439962 21.95070259 23.73351245 20.23901367 26.95288086 C15.51206869 31.15584845 7.54981006 29.6100922 1.64526367 29.61303711 C0.3568457 29.6252832 -0.93157227 29.6375293 -2.2590332 29.65014648 C-3.49588867 29.65208008 -4.73274414 29.65401367 -6.00708008 29.65600586 C-7.70658813 29.66216919 -7.70658813 29.66216919 -9.44042969 29.66845703 C-12.35566575 29.43056153 -13.98561667 28.99952129 -16.41723633 27.42553711 C-19.23750101 23.78418271 -18.71199181 19.31903353 -18.66723633 14.92553711 C-18.6749707 14.1662793 -18.68270508 13.40702148 -18.69067383 12.62475586 C-18.66511553 5.32786216 -18.66511553 5.32786216 -16.41723633 2.42553711 C-11.49640025 -0.75149705 -5.6504421 0.0158546 0 0 Z M-10.41723633 5.42553711 C-10.51583764 6.82902446 -10.54802569 8.23734188 -10.55004883 9.64428711 C-10.55133789 10.4937793 -10.55262695 11.34327148 -10.55395508 12.21850586 C-10.55008789 13.11182617 -10.5462207 14.00514648 -10.54223633 14.92553711 C-10.54610352 15.81885742 -10.5499707 16.71217773 -10.55395508 17.63256836 C-10.55266602 18.48206055 -10.55137695 19.33155273 -10.55004883 20.20678711 C-10.5489209 20.99118164 -10.54779297 21.77557617 -10.54663086 22.58374023 C-10.61831075 24.44306699 -10.61831075 24.44306699 -9.41723633 25.42553711 C-7.79466088 25.52470281 -6.16783802 25.55633488 -4.54223633 25.55834961 C-3.55739258 25.55963867 -2.57254883 25.56092773 -1.55786133 25.56225586 C-0.00325195 25.55645508 -0.00325195 25.55645508 1.58276367 25.55053711 C2.61916992 25.5544043 3.65557617 25.55827148 4.72338867 25.56225586 C5.70823242 25.5609668 6.69307617 25.55967773 7.70776367 25.55834961 C8.6178418 25.55722168 9.52791992 25.55609375 10.46557617 25.55493164 C12.56804847 25.6611372 12.56804847 25.6611372 13.58276367 24.42553711 C13.68136498 23.02204976 13.71355304 21.61373234 13.71557617 20.20678711 C13.71686523 19.35729492 13.7181543 18.50780273 13.71948242 17.63256836 C13.71368164 16.29258789 13.71368164 16.29258789 13.70776367 14.92553711 C13.71163086 14.0322168 13.71549805 13.13889648 13.71948242 12.21850586 C13.71819336 11.36901367 13.7169043 10.51952148 13.71557617 9.64428711 C13.71444824 8.85989258 13.71332031 8.07549805 13.7121582 7.26733398 C13.78383809 5.40800723 13.78383809 5.40800723 12.58276367 4.42553711 C10.96018823 4.32637141 9.33336536 4.29473934 7.70776367 4.29272461 C6.72291992 4.29143555 5.73807617 4.29014648 4.72338867 4.28881836 C3.1687793 4.29461914 3.1687793 4.29461914 1.58276367 4.30053711 C0.54635742 4.29666992 -0.49004883 4.29280273 -1.55786133 4.28881836 C-2.54270508 4.29010742 -3.52754883 4.29139648 -4.54223633 4.29272461 C-5.45231445 4.29385254 -6.36239258 4.29498047 -7.30004883 4.29614258 C-9.40252113 4.18993702 -9.40252113 4.18993702 -10.41723633 5.42553711 Z " fill="#E0BD70" transform="translate(336.417236328125,75.574462890625)"/>
<path d="M0 0 C1.27939453 -0.00257812 2.55878906 -0.00515625 3.87695312 -0.0078125 C14.44936616 0.10318396 14.44936616 0.10318396 17.9375 3.5 C18.6875 5.6875 18.6875 5.6875 18.9375 7.5 C16.2975 7.5 13.6575 7.5 10.9375 7.5 C10.6075 6.84 10.2775 6.18 9.9375 5.5 C6.62501813 5.47111854 3.31256833 5.45324201 0 5.4375 C-0.94552734 5.42912109 -1.89105469 5.42074219 -2.86523438 5.41210938 C-3.76435547 5.40888672 -4.66347656 5.40566406 -5.58984375 5.40234375 C-6.42249756 5.39710693 -7.25515137 5.39187012 -8.11303711 5.38647461 C-10.06766798 5.28356708 -10.06766798 5.28356708 -11.0625 6.5 C-11.16236975 9.34335048 -11.20127881 12.15697163 -11.1875 15 C-11.19136719 15.79792969 -11.19523438 16.59585938 -11.19921875 17.41796875 C-11.5714961 21.2683932 -11.5714961 21.2683932 -10.0625 24.5 C-8.5737814 24.58669432 -7.081055 24.60703494 -5.58984375 24.59765625 C-4.24116211 24.59282227 -4.24116211 24.59282227 -2.86523438 24.58789062 C-1.91970703 24.57951172 -0.97417969 24.57113281 0 24.5625 C1.4240918 24.55573242 1.4240918 24.55573242 2.87695312 24.54882812 C5.23053065 24.5370011 7.58398477 24.52052025 9.9375 24.5 C10.2675 21.86 10.5975 19.22 10.9375 16.5 C6.9775 16.5 3.0175 16.5 -1.0625 16.5 C-1.0625 15.18 -1.0625 13.86 -1.0625 12.5 C5.5375 12.5 12.1375 12.5 18.9375 12.5 C18.9375 23.94444444 18.9375 23.94444444 15.9375 27.5 C10.98701776 30.80032149 5.38010411 29.91028668 -0.4375 29.9375 C-1.66984375 29.97037109 -2.9021875 30.00324219 -4.171875 30.03710938 C-13.05161611 30.09007963 -13.05161611 30.09007963 -17.375 27.56640625 C-19.72631536 23.29376144 -19.79788343 19.80535878 -19.6875 15 C-19.70683594 14.15824219 -19.72617188 13.31648438 -19.74609375 12.44921875 C-19.7147312 8.4661752 -19.32048423 5.97590502 -17.40234375 2.4375 C-11.89559184 -0.75706017 -6.23736826 -0.13867822 0 0 Z " fill="#9E7B3B" transform="translate(235.0625,75.5)"/>
<path d="M0 0 C3.125 0.25 3.125 0.25 5.0625 1.3125 C6.72287914 4.34025019 6.04461884 7.06558538 5.125 10.25 C3.59249394 13.3278718 1.72221593 16.14465611 -0.1875 19 C-1.27528853 20.66891316 -2.36251055 22.33819568 -3.44921875 24.0078125 C-4.0117334 24.86407227 -4.57424805 25.72033203 -5.15380859 26.60253906 C-6.89170392 29.27569323 -8.58679739 31.97151484 -10.26953125 34.6796875 C-10.8111792 35.55012695 -11.35282715 36.42056641 -11.91088867 37.31738281 C-12.95642505 39.00013578 -13.99962344 40.68434404 -15.0402832 42.37011719 C-15.75124146 43.50562012 -15.75124146 43.50562012 -16.4765625 44.6640625 C-17.10038818 45.66880615 -17.10038818 45.66880615 -17.73681641 46.69384766 C-18.875 48.25 -18.875 48.25 -20.875 49.25 C-22.90644641 48.31553465 -24.91033587 47.31775224 -26.875 46.25 C-25.5067362 41.79936523 -23.74887023 37.80458535 -21.609375 33.671875 C-21.13555389 32.75465668 -21.13555389 32.75465668 -20.65216064 31.81890869 C-19.98521593 30.53036312 -19.31613208 29.24292273 -18.64501953 27.95654297 C-17.63652842 26.02211316 -16.63611773 24.08367096 -15.63671875 22.14453125 C-4.36865493 0.37988304 -4.36865493 0.37988304 0 0 Z " fill="#DCB853" transform="translate(133.875,15.75)"/>
<path d="M0 0 C4.13638459 0.75974411 4.67053371 2.12841487 7.0625 5.5625 C8.75385469 8.49449124 10.2960088 11.4940347 11.828125 14.51171875 C12.26638611 15.36554642 12.70464722 16.21937408 13.15618896 17.09907532 C14.07659377 18.89545889 14.99420687 20.69327526 15.90917969 22.49243164 C17.31487299 25.254663 18.73097386 28.01137158 20.1484375 30.76757812 C21.04228735 32.5153077 21.93553777 34.263344 22.828125 36.01171875 C23.25305237 36.8387883 23.67797974 37.66585785 24.11578369 38.51799011 C24.50328796 39.28250992 24.89079224 40.04702972 25.29003906 40.8347168 C25.63327209 41.50802536 25.97650513 42.18133392 26.33013916 42.87504578 C27.0625 44.5625 27.0625 44.5625 27.0625 46.5625 C24.75 48.25 24.75 48.25 22.0625 49.5625 C18.14771337 48.25757112 17.66091113 46.73426745 15.55078125 43.234375 C14.87466797 42.12320313 14.19855469 41.01203125 13.50195312 39.8671875 C12.79270707 38.68244828 12.08372345 37.49755192 11.375 36.3125 C10.69244141 35.18585937 10.00988281 34.05921875 9.30664062 32.8984375 C8.27080942 31.18868022 7.23499575 29.4788968 6.20681763 27.76452637 C4.43623371 24.81343152 2.6412248 21.88263759 0.79443359 18.97851562 C0.42746872 18.39724915 0.06050385 17.81598267 -0.31758118 17.21710205 C-1.33371742 15.61170497 -2.35765542 14.01125367 -3.38208008 12.41113281 C-4.87814041 9.67121255 -5.6486916 7.65597366 -5.9375 4.5625 C-4.43162977 1.28501773 -3.56276838 0.68223224 0 0 Z " fill="#DCB853" transform="translate(53.9375,15.4375)"/>
<path d="M0 0 C2.9375 0.8125 2.9375 0.8125 6 2 C7 5 7 5 5.54052734 8.42651367 C4.81623147 9.84577471 4.08052532 11.25924757 3.3359375 12.66796875 C2.94685211 13.42161209 2.55776672 14.17525543 2.15689087 14.95173645 C1.329172 16.55042015 0.4966214 18.14660994 -0.34033203 19.74047852 C-1.60832813 22.15574361 -2.86209937 24.57794272 -4.11328125 27.00195312 C-4.92104004 28.55772546 -5.72960927 30.11307734 -6.5390625 31.66796875 C-6.91012115 32.38284958 -7.28117981 33.09773041 -7.66348267 33.83427429 C-14.85016964 47.49519643 -14.85016964 47.49519643 -18.5625 49.125 C-21.36147153 48.981463 -22.7856022 48.73988399 -25 47 C-25.91272404 44.19014798 -26.20760284 42.58292423 -25.20703125 39.7734375 C-24.74683594 38.98195312 -24.28664062 38.19046875 -23.8125 37.375 C-23.26078125 36.42367187 -22.7090625 35.47234375 -22.140625 34.4921875 C-17.99262734 27.66950251 -13.71076387 20.92997556 -9.40820312 14.20410156 C-8.16740877 12.26202607 -6.93301664 10.31617795 -5.703125 8.3671875 C-1.13076241 1.13076241 -1.13076241 1.13076241 0 0 Z " fill="#DCB853" transform="translate(74,119)"/>
<path d="M0 0 C0.80600143 0.02406921 1.61200287 0.04813843 2.44242859 0.07293701 C5.0287304 0.15404093 7.61369162 0.25673456 10.19921875 0.359375 C11.89774355 0.41410866 13.5963119 0.46750795 15.29492188 0.51953125 C24.84491425 0.828927 34.3620449 1.33633524 43.88671875 2.109375 C43.88671875 4.749375 43.88671875 7.389375 43.88671875 10.109375 C36.6977219 10.47128392 29.50787338 10.80855878 22.31689453 11.12866211 C19.87033894 11.24048888 17.42403504 11.35797044 14.97802734 11.48120117 C11.46372366 11.65727278 7.94901898 11.81304258 4.43359375 11.96484375 C2.79121735 12.05369087 2.79121735 12.05369087 1.11566162 12.14433289 C-0.41547272 12.20473503 -0.41547272 12.20473503 -1.97753906 12.26635742 C-2.87466614 12.30854904 -3.77179321 12.35074066 -4.69610596 12.39421082 C-7.67436767 12.04325753 -8.98830466 11.19864648 -11.11328125 9.109375 C-11.55716406 6.06560719 -11.71608279 4.10236036 -10.09301758 1.42871094 C-6.94623333 -0.6683691 -3.63845283 -0.16132393 0 0 Z " fill="#DCB853" transform="translate(19.11328125,85.890625)"/>
<path d="M0 0 C1.134375 0.144375 2.26875 0.28875 3.4375 0.4375 C5.90188743 4.13408115 5.62050239 6.78859881 5.44921875 11.04296875 C5.42656448 11.79983475 5.40391022 12.55670074 5.38056946 13.33650208 C5.30509919 15.76642654 5.21496089 18.19557359 5.125 20.625 C5.07527339 22.21025853 5.0264365 23.79554523 4.97851562 25.38085938 C4.73385636 33.10880357 4.40122375 40.83167226 3.95703125 48.55078125 C3.88202393 49.85442627 3.8070166 51.15807129 3.72973633 52.5012207 C3.4375 55.4375 3.4375 55.4375 2.4375 56.4375 C0.43791636 56.47830783 -1.56295254 56.48004356 -3.5625 56.4375 C-4.2789464 53.14492202 -4.73171009 49.98264919 -4.90722656 46.61889648 C-4.95687561 45.69120956 -5.00652466 44.76352264 -5.05767822 43.807724 C-5.10567566 42.81801102 -5.1536731 41.82829803 -5.203125 40.80859375 C-5.25321716 39.78194107 -5.30330933 38.75528839 -5.35491943 37.69752502 C-5.45804379 35.53161517 -5.55875895 33.36558945 -5.65722656 31.19946289 C-5.76084174 28.98102283 -5.87153357 26.76290212 -5.98925781 24.54516602 C-6.15929107 21.34184395 -6.30857938 18.13815504 -6.453125 14.93359375 C-6.50921936 13.94185654 -6.56531372 12.95011932 -6.62310791 11.92832947 C-6.66014832 11.00379471 -6.69718872 10.07925995 -6.73535156 9.12670898 C-6.77452698 8.3157225 -6.81370239 7.50473602 -6.85406494 6.66917419 C-6.25457441 2.08059935 -4.48675256 0.5510047 0 0 Z " fill="#DCB853" transform="translate(94.5625,5.5625)"/>
<path d="M0 0 C1.99954746 -0.04254356 4.00041636 -0.04080783 6 0 C8.12137937 2.12137937 7.40275142 6.73844453 7.53515625 9.6796875 C7.57813339 10.56222198 7.62111053 11.44475647 7.66539001 12.35403442 C7.75582544 14.23200947 7.84393364 16.11009777 7.92993164 17.98828125 C8.0603609 20.82842033 8.19848034 23.6681017 8.33789062 26.5078125 C8.55070704 30.91750877 8.74169644 35.32759204 8.91192627 39.73913574 C8.98893728 41.71601858 9.07545865 43.6925263 9.16357422 45.66894531 C9.19080566 46.64702148 9.21803711 47.62509766 9.24609375 48.6328125 C9.27243896 49.4283252 9.29878418 50.22383789 9.32592773 51.04345703 C8.90012488 53.59954999 8.05175789 54.46080712 6 56 C3 56.4375 3 56.4375 0 56 C-1.9871868 53.94458074 -2.9185796 52.6232018 -3.29156494 49.76832581 C-3.25238953 48.95733932 -3.21321411 48.14635284 -3.17285156 47.31079102 C-3.13581116 46.38625626 -3.09877075 45.4617215 -3.06060791 44.50917053 C-3.00451355 43.51743332 -2.94841919 42.52569611 -2.890625 41.50390625 C-2.84435974 40.4782103 -2.79809448 39.45251434 -2.75042725 38.39573669 C-2.5983882 35.1170948 -2.42398204 31.84004282 -2.25 28.5625 C-2.14707268 26.35878728 -2.04549445 24.15501111 -1.9453125 21.95117188 C-1.84497012 19.84369155 -1.74344679 17.73626706 -1.640625 15.62890625 C-1.59262756 14.63919327 -1.54463013 13.64948029 -1.49517822 12.629776 C-1.44552917 11.70208908 -1.39588013 10.77440216 -1.34472656 9.81860352 C-1.28118988 8.6009304 -1.28118988 8.6009304 -1.21636963 7.35865784 C-0.98657593 4.85366345 -0.53452107 2.4565024 0 0 Z " fill="#DCB853" transform="translate(91,122)"/>
<path d="M0 0 C3.83076888 1.48205255 5.23857322 3.4569732 7.35546875 6.91796875 C7.97421875 7.91844238 8.59296875 8.91891602 9.23046875 9.94970703 C9.87628906 11.01817871 10.52210937 12.08665039 11.1875 13.1875 C12.18136719 14.81341064 12.18136719 14.81341064 13.1953125 16.47216797 C14.52112396 18.64341036 15.84328784 20.81688467 17.16162109 22.99267578 C18.7490243 25.58943975 20.36924353 28.15782936 22.01953125 30.71484375 C22.44661377 31.38813721 22.87369629 32.06143066 23.3137207 32.75512695 C24.42078526 34.50013774 25.53812985 36.23861488 26.65625 37.9765625 C28.22889616 41.51501635 28.01675606 43.31978514 27 47 C21.61161082 49.20434103 21.61161082 49.20434103 18.95147705 48.31558228 C16.58744607 46.72187803 15.80332281 45.36474651 14.52636719 42.82568359 C14.08621277 41.96494232 13.64605835 41.10420105 13.19256592 40.21737671 C12.73198792 39.28712677 12.27140991 38.35687683 11.796875 37.3984375 C11.3142218 36.44683746 10.8315686 35.49523743 10.33428955 34.51480103 C8.79503429 31.47368498 7.27239347 28.42458642 5.75 25.375 C4.70941678 23.31195316 3.667763 21.24944593 2.625 19.1875 C0.0708772 14.13119615 -2.46965348 9.06824033 -5 4 C-3.35 2.68 -1.7 1.36 0 0 Z " fill="#DCB853" transform="translate(112,119)"/>
<path d="M0 0 C0 9.24 0 18.48 0 28 C-2.31 27.67 -4.62 27.34 -7 27 C-8.25248502 24.49502996 -8.11374406 22.79146726 -8.09765625 19.9921875 C-8.09443359 19.00605469 -8.09121094 18.01992187 -8.08789062 17.00390625 C-8.07532227 15.45509766 -8.07532227 15.45509766 -8.0625 13.875 C-8.05798828 12.83472656 -8.05347656 11.79445313 -8.04882812 10.72265625 C-8.03701952 8.14838038 -8.02055075 5.57421854 -8 3 C-14.36142503 5.46084018 -18.39790326 10.09688074 -23.0625 14.9375 C-33.62218667 25.79027185 -33.62218667 25.79027185 -37 28 C-38.32 28 -39.64 28 -41 28 C-39.41906484 24.11998874 -36.77726494 21.50346873 -33.84375 18.61328125 C-33.34081421 18.11080368 -32.83787842 17.60832611 -32.31970215 17.09062195 C-31.25960915 16.03354081 -30.19709596 14.97888187 -29.13232422 13.92651367 C-27.50036923 12.31286509 -25.87660847 10.69130709 -24.25390625 9.06835938 C-23.22182571 8.04119265 -22.18928919 7.01448384 -21.15625 5.98828125 C-20.66974976 5.50289383 -20.18324951 5.01750641 -19.68200684 4.51741028 C-12.88602973 -2.18303893 -12.58881161 0 0 0 Z " fill="#F0DC9E" transform="translate(468,77)"/>
<path d="M0 0 C1.5625 2.8125 1.5625 2.8125 3 6 C1.22078677 11.33763969 -4.54945558 13.42267966 -9.1875 16.25 C-10.22970703 16.91257813 -11.27191406 17.57515625 -12.34570312 18.2578125 C-13.35955078 18.87914062 -14.37339844 19.50046875 -15.41796875 20.140625 C-16.80665161 20.99962402 -16.80665161 20.99962402 -18.22338867 21.87597656 C-21.58862571 23.23828653 -23.53124551 22.88803182 -27 22 C-29.19647116 16.63084827 -29.19647116 16.63084827 -28.37255859 13.98535156 C-26.56955841 11.37738331 -24.72235973 10.44291395 -21.9140625 8.984375 C-20.90085937 8.45585938 -19.88765625 7.92734375 -18.84375 7.3828125 C-17.25046875 6.57457031 -17.25046875 6.57457031 -15.625 5.75 C-14.57054687 5.19570312 -13.51609375 4.64140625 -12.4296875 4.0703125 C-4.52967211 0 -4.52967211 0 0 0 Z " fill="#DCB853" transform="translate(47,115)"/>
<path d="M0 0 C2.59301758 1.25927734 2.59301758 1.25927734 5.14453125 2.8359375 C6.06814453 3.40570313 6.99175781 3.97546875 7.94335938 4.5625 C8.89017578 5.160625 9.83699219 5.75875 10.8125 6.375 C11.77865234 6.96539062 12.74480469 7.55578125 13.74023438 8.1640625 C20.87137912 12.61413737 20.87137912 12.61413737 22 16 C20.5625 19.1875 20.5625 19.1875 19 22 C12.38785671 21.15432414 7.47665492 18.40158142 1.6875 15.25 C0.67365234 14.7240625 -0.34019531 14.198125 -1.38476562 13.65625 C-2.82819336 12.87507813 -2.82819336 12.87507813 -4.30078125 12.078125 C-5.17903564 11.60793945 -6.05729004 11.13775391 -6.9621582 10.65332031 C-9 9 -9 9 -9.84448242 6.44824219 C-10.02457945 3.61305689 -9.58346888 2.33353309 -8 0 C-5.05822624 -1.47088688 -3.16182048 -0.73171283 0 0 Z " fill="#DCB853" transform="translate(28,47)"/>
<path d="M0 0 C6.05096415 0.95609589 10.90241617 3.8246868 16.25 6.6875 C17.26835937 7.20505859 18.28671875 7.72261719 19.3359375 8.25585938 C20.30273438 8.77341797 21.26953125 9.29097656 22.265625 9.82421875 C23.15024414 10.28916748 24.03486328 10.75411621 24.94628906 11.2331543 C27 13 27 13 27.89355469 16.04614258 C28 19 28 19 26.4375 21.4375 C24 23 24 23 21.453125 22.96484375 C16.48765507 21.57743303 12.60324264 18.9285916 8.3125 16.125 C7.45849609 15.58230469 6.60449219 15.03960937 5.72460938 14.48046875 C-1.10886897 10.08943554 -1.10886897 10.08943554 -4 7 C-2.68 4.69 -1.36 2.38 0 0 Z " fill="#DCB853" transform="translate(142,115)"/>
<path d="M0 0 C2.64 0 5.28 0 8 0 C8 8.25 8 16.5 8 25 C16.25 25 24.5 25 33 25 C33 26.32 33 27.64 33 29 C28.78250781 29.07419134 24.56536189 29.1286204 20.34741211 29.16479492 C18.91277448 29.17987589 17.47818292 29.2003438 16.04370117 29.22631836 C13.98084141 29.26273437 11.91859142 29.27973243 9.85546875 29.29296875 C8.61434326 29.3086792 7.37321777 29.32438965 6.09448242 29.34057617 C3 29 3 29 1.08984375 27.85546875 C-0.48008109 25.18265764 -0.33812279 23.10505764 -0.29296875 20.01953125 C-0.28330078 18.85615234 -0.27363281 17.69277344 -0.26367188 16.49414062 C-0.2259668 14.67172852 -0.2259668 14.67172852 -0.1875 12.8125 C-0.17396484 11.58595703 -0.16042969 10.35941406 -0.14648438 9.09570312 C-0.11108741 6.06336336 -0.0617076 3.03190004 0 0 Z " fill="#CDAE6D" transform="translate(484,76)"/>
<path d="M0 0 C2.64 0 5.28 0 8 0 C8 8.25 8 16.5 8 25 C15.92 25 23.84 25 32 25 C32 26.32 32 27.64 32 29 C27.92497206 29.07420211 23.85020608 29.1286257 19.7746582 29.16479492 C18.38852081 29.17987397 17.00243106 29.2003405 15.61645508 29.22631836 C13.62341854 29.26273716 11.63003277 29.27813018 9.63671875 29.29296875 C8.43748779 29.3086792 7.23825684 29.32438965 6.00268555 29.34057617 C3 29 3 29 1.10351562 27.85546875 C-0.48542633 25.18379644 -0.33824164 23.11317878 -0.29296875 20.01953125 C-0.28330078 18.85615234 -0.27363281 17.69277344 -0.26367188 16.49414062 C-0.2259668 14.67172852 -0.2259668 14.67172852 -0.1875 12.8125 C-0.17396484 11.58595703 -0.16042969 10.35941406 -0.14648438 9.09570312 C-0.11108741 6.06336336 -0.0617076 3.03190004 0 0 Z " fill="#C6A157" transform="translate(270,76)"/>
<path d="M0 0 C1.32 0 2.64 0 4 0 C5.00484204 1.95585325 6.00373805 3.91476237 7 5.875 C7.556875 6.96554688 8.11375 8.05609375 8.6875 9.1796875 C10 12 10 12 10 14 C10.66 14 11.32 14 12 14 C12.2475 13.175 12.495 12.35 12.75 11.5 C14.18704811 7.47626529 16.02354515 3.78020976 18 0 C19.32 0 20.64 0 22 0 C22.99862699 7.36487404 23.10331031 14.57313685 23 22 C22.01 22 21.02 22 20 22 C19.34 17.71 18.68 13.42 18 9 C16.02 12.63 14.04 16.26 12 20 C10.68 19.67 9.36 19.34 8 19 C5.91661733 15.48566239 4.56709161 11.78713807 3 8 C2.67 12.62 2.34 17.24 2 22 C0.68 22 -0.64 22 -2 22 C-1.86145912 18.70798357 -1.71292976 15.41649291 -1.5625 12.125 C-1.50352539 10.71927734 -1.50352539 10.71927734 -1.44335938 9.28515625 C-1.40146484 8.38925781 -1.35957031 7.49335938 -1.31640625 6.5703125 C-1.27974854 5.74289551 -1.24309082 4.91547852 -1.20532227 4.06298828 C-1 2 -1 2 0 0 Z " fill="#FFFFFF" transform="translate(426,123)"/>
<path d="M0 0 C2.64233769 2.19257809 4.46669809 3.93339618 6 7 C6.26928623 11.10661505 6.39058642 13.96609478 4.9375 17.8125 C2.24273951 20.85497152 -0.12059622 21.83617886 -4 23 C-9.3225537 22.90823183 -12.18865182 21.69924971 -16 18 C-17.85243916 14.29512168 -17.4585162 10.04385812 -17 6 C-15.22622661 2.84662509 -13.80337044 1.4909486 -10.75 -0.375 C-6.95272078 -1.238018 -3.72550901 -1.18915237 0 0 Z M-10.8125 3.5625 C-13.47917604 6.53393902 -14 8.02048194 -14 12 C-12.82644543 15.21183355 -11.88217795 17.30034163 -9.1875 19.4375 C-6.10130573 20.23109281 -4.04336621 19.90653461 -1 19 C1.16623148 17.1948071 1.85535392 15.86966222 2.31640625 13.09765625 C2.52209181 9.53465153 2.3864089 7.57961335 0.375 4.5625 C-3.69993565 1.88162128 -6.44909171 1.13838428 -10.8125 3.5625 Z " fill="#FFFFFF" transform="translate(411,123)"/>
<path d="M0 0 C2.13903942 1.670533 2.41324374 2.7360468 2.765625 5.37890625 C1.03840816 6.65238837 -0.69123738 7.92257682 -2.421875 9.19140625 C-3.38480469 9.89910156 -4.34773438 10.60679688 -5.33984375 11.3359375 C-13.25500943 16.92248494 -13.25500943 16.92248494 -19.234375 16.37890625 C-20.234375 15.37890625 -20.234375 15.37890625 -20.796875 12.62890625 C-20.234375 9.37890625 -20.234375 9.37890625 -18.80078125 8.046875 C-16.66498463 6.69320108 -14.48589842 5.53000665 -12.234375 4.37890625 C-11.37070312 3.88648437 -10.50703125 3.3940625 -9.6171875 2.88671875 C-2.89351724 -0.80431685 -2.89351724 -0.80431685 0 0 Z " fill="#DCB853" transform="translate(70.234375,102.62109375)"/>
<path d="M0 0 C4.49834104 1.38358065 8.57440628 3.14292308 12.75 5.3125 C13.87921875 5.88613281 15.0084375 6.45976563 16.171875 7.05078125 C19.27552766 9.18990097 20.27480821 10.32140615 21 14 C20.01 15.485 20.01 15.485 19 17 C14.02308262 17.92902458 11.16812978 16.23731444 7.18945312 13.54296875 C6.52880859 13.07503906 5.86816406 12.60710937 5.1875 12.125 C4.50751953 11.66480469 3.82753906 11.20460938 3.12695312 10.73046875 C-1.84493731 7.31012538 -1.84493731 7.31012538 -3 5 C-1.5625 2.375 -1.5625 2.375 0 0 Z " fill="#DCB854" transform="translate(118,102)"/>
<path d="M0 0 C4.81499555 0.52171509 7.86927274 2.72099284 11.8359375 5.375 C12.57199219 5.85195312 13.30804688 6.32890625 14.06640625 6.8203125 C15.87250239 7.9931022 17.66783544 9.18243806 19.4609375 10.375 C18.5859375 15.125 18.5859375 15.125 17.4609375 17.375 C12.78624672 15.94602386 8.49222182 14.02778433 4.1484375 11.8125 C3.51615234 11.49603516 2.88386719 11.17957031 2.23242188 10.85351562 C-2.39818385 8.51587865 -2.39818385 8.51587865 -3.5390625 7.375 C-3.6640625 4.375 -3.6640625 4.375 -3.5390625 1.375 C-2.5390625 0.375 -2.5390625 0.375 0 0 Z " fill="#DCB854" transform="translate(53.5390625,64.625)"/>
<path d="M0 0 C4.62 0 9.24 0 14 0 C14 0.99 14 1.98 14 3 C10.7 3 7.4 3 4 3 C4 4.98 4 6.96 4 9 C6.97 9 9.94 9 13 9 C13 9.99 13 10.98 13 12 C10.03 12 7.06 12 4 12 C4 14.31 4 16.62 4 19 C7.63 19 11.26 19 15 19 C15 19.99 15 20.98 15 22 C10.05 22 5.1 22 0 22 C0 14.74 0 7.48 0 0 Z " fill="#FFFFFF" transform="translate(348,123)"/>
<path d="M0 0 C4.62 0 9.24 0 14 0 C14 0.99 14 1.98 14 3 C10.7 3 7.4 3 4 3 C4 4.98 4 6.96 4 9 C6.97 9 9.94 9 13 9 C13 9.99 13 10.98 13 12 C10.03 12 7.06 12 4 12 C4 14.31 4 16.62 4 19 C7.63 19 11.26 19 15 19 C15 19.99 15 20.98 15 22 C10.05 22 5.1 22 0 22 C0 14.74 0 7.48 0 0 Z " fill="#FFFFFF" transform="translate(304,123)"/>
<path d="M0 0 C0 1.32 0 2.64 0 4 C-0.60328125 3.88140625 -1.2065625 3.7628125 -1.828125 3.640625 C-6.8812301 2.7541499 -6.8812301 2.7541499 -11.5625 4.4375 C-13.66611762 8.18742706 -13.3399229 10.71697145 -13 15 C-12.67 15.99 -12.34 16.98 -12 18 C-5.71148966 19.29616272 -5.71148966 19.29616272 0 17 C0.33 18.32 0.66 19.64 1 21 C-3.47306038 23.37631333 -7.222711 23.35115245 -12 22 C-15.40563431 19.82619087 -16.71751983 18.84744051 -18 15 C-18.38971703 10.24545226 -18.4608337 7.92166739 -16.3125 3.625 C-11.40271275 -1.94827202 -6.81192498 -1.09821884 0 0 Z " fill="#FFFFFF" transform="translate(387,123)"/>
<path d="M0 0 C6.6 0 13.2 0 20 0 C20 0.99 20 1.98 20 3 C17.03 3 14.06 3 11 3 C11 9.27 11 15.54 11 22 C10.01 22 9.02 22 8 22 C8 15.73 8 9.46 8 3 C5.36 3 2.72 3 0 3 C0 2.01 0 1.02 0 0 Z " fill="#FFFFFF" transform="translate(278,123)"/>
<path d="M0 0 C6.25925926 -0.48148148 6.25925926 -0.48148148 9.5 1.625 C11 4 11 4 11 7.125 C10 10 10 10 8.3125 11.4375 C5.30087749 12.17005683 2.99492576 11.68066494 0 11 C0 7.37 0 3.74 0 0 Z " fill="#DCB855" transform="translate(186,86)"/>
<path d="M0 0 C0.99 0 1.98 0 3 0 C3 6.27 3 12.54 3 19 C6.96 19 10.92 19 15 19 C15 19.99 15 20.98 15 22 C10.05 22 5.1 22 0 22 C0 14.74 0 7.48 0 0 Z " fill="#FFFFFF" transform="translate(327,123)"/>
<path d="M0 0 C2 2.1875 2 2.1875 3 5 C2.33719617 7.43028072 1.7989028 9.2010972 0 11 C-5.27565392 11.45875252 -5.27565392 11.45875252 -7.875 9.8125 C-9.40659584 7.34492892 -9.42822025 5.85480169 -9 3 C-6.74931489 -0.62610379 -4.01495981 -0.66915997 0 0 Z M-6 2 C-6 2.33 -6 2.66 -6 3 C-4.35 3 -2.7 3 -1 3 C-1 2.67 -1 2.34 -1 2 C-2.65 2 -4.3 2 -6 2 Z M-7 3 C-7 4.65 -7 6.3 -7 8 C-6.67 8 -6.34 8 -6 8 C-6 6.35 -6 4.7 -6 3 C-6.33 3 -6.66 3 -7 3 Z M0 4 C1 7 1 7 1 7 Z M-5 7 C-5.33 7.66 -5.66 8.32 -6 9 C-4.68 9.33 -3.36 9.66 -2 10 C-2 9.01 -2 8.02 -2 7 C-2.99 7 -3.98 7 -5 7 Z " fill="#DCB853" transform="translate(181,135)"/>
</svg>
