<svg xmlns:xlink="http://www.w3.org/1999/xlink" xmlns="http://www.w3.org/2000/svg" width="104" height="30" viewBox="0 0 104 30"><g fill="none"><path fill="#40C706" d="M103.698 17.968c-1.123-2.967-3.472-6.488-5.439-8.633 1.086.577 2.378 1.294 3.2 1.753.653.355 1.24.444 1.703.148.44-.281.903-1.065.095-2.826C101.13 3.794 96.344.672 91.162.013c-.543-.066-.91.119-.99.481-.081.348.183.718.733.873 2.716.755 5.96 2.353 7.963 5.8-5.188-3.13-10.671-4.875-15.882-5.57-.712-.097-1.196.162-1.284.643-.081.459.257.88.998 1.08 4.844 1.31 11.192 4.002 15.589 11.807-5.63-4.757-14.18-8.596-21.307-9.691-.777-.118-1.291.163-1.401.651-.11.488.198.97.998 1.235C82.09 9.15 89.907 13.36 94.017 22.096c-4.066-4.29-12.756-9.003-19.112-10.453-.844-.193-1.35.044-1.519.525-.161.466.103 1.021.91 1.376 3.53 1.531 8.727 4.83 11.362 10.26-1.542-1.168-4.55-3.358-7.876-4.305-2.877-.82-4.374.563-2.766 3.47 1.16 2.108 3.794 4.616 6.018 5.985.917.562 1.644-.355.807-1.132-1.871-1.731-3.251-3.263-3.64-4.143-.316-.717.176-.999 1.027-.6 2.929 1.377 5.835 3.907 7.56 5.438.778.688 2.003 1.798 3.23 1.399 1.027-.333 1.276-1.598.792-3.211-.675-2.256-1.835-4.247-2.628-5.608 2.15 1.643 4.602 3.877 6.738 5.926 1.108 1.065 2.4 2.145 3.72 1.605 1.183-.48 1.249-2.042.904-3.484-.705-2.93-2.804-6.532-4.118-8.493 1.3.85 3.442 2.552 5.086 3.84 1.065.828 1.982 1.028 2.716.628.793-.443 1.02-1.701.47-3.151z"></path><path fill="#002391" d="M47.219 11.4L43.61 11.4 41.183 15.102 38.748 11.4 35.118 11.4 39.149 17.24 34.867 23.4 38.397 23.4 41.183 19.35 43.94 23.4 47.491 23.4 43.159 17.24zM51.098 6c-.995 0-1.803.806-1.803 1.8s.808 1.8 1.803 1.8c.996 0 1.804-.806 1.804-1.8S52.094 6 51.098 6zM14.995 10.8c-1.897 0-3.538 1.12-4.256 2.24-.461-1.396-1.612-2.24-3.436-2.24-1.897 0-3.538 1.171-4.05 1.906l-1.055-1.6H0v12.287h3.252v-8.264c.484-.684 1.436-1.448 2.564-1.448 1.334 0 1.846.815 1.846 1.957V23.4h3.282v-8.293c.462-.662 1.407-1.426 2.564-1.426 1.333 0 1.846.815 1.846 1.957V23.4h3.282v-8.883c0-2.524-1.355-3.717-3.64-3.717zM27.691 10.8c-1.931 0-3.746.582-5.466 1.648l1.319 1.974c1.006-.632 2.318-1.086 3.579-1.086 1.633 0 2.704.795 2.704 2.01v1.172c-.896-.44-1.982-.902-3.9-.867-1.96.043-4.285 1.186-4.285 3.772 0 2.684 2.318 3.977 4.286 3.977 1.603 0 3.054-.66 3.9-1.357v1.059h3.236v-7.756c.014-3.452-2.566-4.546-5.373-4.546zm2.143 9.574c-.59.47-1.552.86-2.602.86-1.275 0-2.318-.647-2.318-1.762 0-1.143.94-1.854 2.216-1.854 1.043 0 2.136.306 2.704.697v2.06zM49.295 11.4H52.902V23.4H49.295zM61.784 15.625c-1.376-.27-2.345-.547-2.345-1.293 0-.696.765-1.116 1.937-1.116 1.435 0 2.775.569 3.54 1.287l1.375-2.061c-1.194-.946-2.854-1.642-4.937-1.642-3.233 0-5.046 1.762-5.046 3.78 0 2.858 2.723 3.355 4.842 3.753 1.399.277 2.469.569 2.469 1.414 0 .746-.663 1.215-2.06 1.215-1.5 0-3.3-.788-4.202-1.599l-1.45 2.175c1.297 1.166 3.365 1.862 5.498 1.862 3.415 0 5.323-1.642 5.323-3.852-.007-2.977-2.832-3.525-4.944-3.923z"></path></g></svg>