<?xml version="1.0" encoding="UTF-8" standalone="no" ?>
<!DOCTYPE svg PUBLIC "-//W3C//DTD SVG 1.1//EN" "http://www.w3.org/Graphics/SVG/1.1/DTD/svg11.dtd">
<svg xmlns="http://www.w3.org/2000/svg" xmlns:xlink="http://www.w3.org/1999/xlink" version="1.1" width="1080" height="1080" viewBox="0 0 1080 1080" xml:space="preserve">
<desc>Created with Fabric.js 5.2.4</desc>
<defs>
</defs>
<g transform="matrix(1 0 0 1 540 540)" id="bfe05fc7-756d-4166-8921-c1cfd2d2c618"  >
<rect style="stroke: none; stroke-width: 1; stroke-dasharray: none; stroke-linecap: butt; stroke-dashoffset: 0; stroke-linejoin: miter; stroke-miterlimit: 4; fill: rgb(255,255,255); fill-rule: nonzero; opacity: 1;" vector-effect="non-scaling-stroke"  x="-540" y="-540" rx="0" ry="0" width="1080" height="1080" />
</g>
<g transform="matrix(1 0 0 1 540 540)" id="8f8b04ad-416d-4c53-a15c-bd5d03715c85"  >
</g>
<g transform="matrix(1 0 0 1 540 540)"  >
<g style="" vector-effect="non-scaling-stroke"   >
		<g transform="matrix(1 0 0 1 36.67 0)"  >
<path style="stroke: none; stroke-width: 1; stroke-dasharray: none; stroke-linecap: butt; stroke-dashoffset: 0; stroke-linejoin: miter; stroke-miterlimit: 4; fill: rgb(64,199,6); fill-rule: nonzero; opacity: 1;" vector-effect="non-scaling-stroke"  transform=" translate(-88.67, -15)" d="M 103.698 17.968 C 102.57499999999999 15.001 100.226 11.48 98.25899999999999 9.335 C 99.34499999999998 9.912 100.63699999999999 10.629000000000001 101.45899999999999 11.088000000000001 C 102.112 11.443000000000001 102.69899999999998 11.532000000000002 103.16199999999999 11.236 C 103.60199999999999 10.955 104.065 10.171000000000001 103.25699999999999 8.41 C 101.13 3.794 96.344 0.672 91.162 0.013 C 90.619 -0.053000000000000005 90.25200000000001 0.132 90.17200000000001 0.494 C 90.09100000000001 0.842 90.35500000000002 1.212 90.90500000000002 1.367 C 93.62100000000001 2.122 96.86500000000001 3.72 98.86800000000001 7.167 C 93.68 4.037 88.197 2.292 82.986 1.5969999999999995 C 82.274 1.4999999999999996 81.79 1.7589999999999995 81.702 2.2399999999999993 C 81.621 2.6989999999999994 81.959 3.119999999999999 82.7 3.3199999999999994 C 87.544 4.629999999999999 93.892 7.321999999999999 98.289 15.126999999999999 C 92.659 10.37 84.10900000000001 6.530999999999999 76.982 5.435999999999998 C 76.205 5.317999999999998 75.691 5.598999999999998 75.581 6.086999999999998 C 75.471 6.5749999999999975 75.779 7.056999999999998 76.57900000000001 7.321999999999998 C 82.09 9.15 89.907 13.36 94.017 22.096 C 89.951 17.806 81.261 13.093 74.905 11.643 C 74.061 11.450000000000001 73.555 11.687000000000001 73.386 12.168000000000001 C 73.225 12.634 73.48899999999999 13.189 74.29599999999999 13.544 C 77.826 15.075000000000001 83.023 18.374000000000002 85.65799999999999 23.804000000000002 C 84.11599999999999 22.636000000000003 81.10799999999999 20.446 77.78199999999998 19.499000000000002 C 74.90499999999999 18.679000000000002 73.40799999999999 20.062 75.01599999999998 22.969 C 76.17599999999997 25.077 78.80999999999997 27.585 81.03399999999998 28.954 C 81.95099999999998 29.516000000000002 82.67799999999998 28.599 81.84099999999998 27.822 C 79.96999999999998 26.090999999999998 78.58999999999997 24.558999999999997 78.20099999999998 23.679 C 77.88499999999998 22.962 78.37699999999998 22.68 79.22799999999998 23.078999999999997 C 82.15699999999998 24.455999999999996 85.06299999999997 26.985999999999997 86.78799999999998 28.516999999999996 C 87.56599999999999 29.204999999999995 88.79099999999998 30.314999999999998 90.01799999999999 29.915999999999997 C 91.04499999999999 29.583 91.29399999999998 28.317999999999998 90.80999999999999 26.705 C 90.13499999999999 24.448999999999998 88.975 22.458 88.18199999999999 21.096999999999998 C 90.332 22.74 92.78399999999999 24.973999999999997 94.91999999999999 27.022999999999996 C 96.02799999999999 28.087999999999997 97.32 29.167999999999996 98.63999999999999 28.627999999999997 C 99.823 28.147999999999996 99.88899999999998 26.586 99.54399999999998 25.144 C 98.83899999999998 22.214 96.73999999999998 18.612 95.42599999999999 16.650999999999996 C 96.72599999999998 17.500999999999998 98.868 19.202999999999996 100.51199999999999 20.490999999999996 C 101.57699999999998 21.318999999999996 102.49399999999999 21.518999999999995 103.22799999999998 21.118999999999996 C 104.02099999999999 20.675999999999995 104.24799999999998 19.417999999999996 103.69799999999998 17.967999999999996 z" stroke-linecap="round" />
</g>
		<g transform="matrix(1 0 0 1 -18.64 -0.3)"  >
<path style="stroke: none; stroke-width: 1; stroke-dasharray: none; stroke-linecap: butt; stroke-dashoffset: 0; stroke-linejoin: miter; stroke-miterlimit: 4; fill: rgb(0,35,145); fill-rule: nonzero; opacity: 1;" vector-effect="non-scaling-stroke"  transform=" translate(-33.36, -14.7)" d="M 47.219 11.4 L 43.61 11.4 L 41.183 15.102 L 38.748 11.4 L 35.118 11.4 L 39.149 17.24 L 34.867 23.4 L 38.397 23.4 L 41.183 19.35 L 43.94 23.4 L 47.491 23.4 L 43.159 17.24 z M 51.098 6 C 50.103 6 49.295 6.806 49.295 7.8 C 49.295 8.794 50.103 9.6 51.098 9.6 C 52.094 9.6 52.902 8.794 52.902 7.8 C 52.902 6.805999999999999 52.094 6 51.098 6 z M 14.995 10.8 C 13.097999999999999 10.8 11.456999999999999 11.920000000000002 10.738999999999999 13.040000000000001 C 10.277999999999999 11.644000000000002 9.126999999999999 10.8 7.302999999999999 10.8 C 5.405999999999999 10.8 3.7649999999999992 11.971 3.2529999999999992 12.706000000000001 L 2.1979999999999995 11.106000000000002 L 0 11.106000000000002 L 0 23.393 L 3.252 23.393 L 3.252 15.129000000000001 C 3.7359999999999998 14.445000000000002 4.688 13.681000000000001 5.816 13.681000000000001 C 7.15 13.681000000000001 7.662 14.496 7.662 15.638000000000002 L 7.662 23.4 L 10.943999999999999 23.4 L 10.943999999999999 15.107 C 11.405999999999999 14.444999999999999 12.350999999999999 13.681 13.508 13.681 C 14.841 13.681 15.354 14.495999999999999 15.354 15.638 L 15.354 23.4 L 18.636 23.4 L 18.636 14.517 C 18.636 11.992999999999999 17.281 10.799999999999999 14.995999999999999 10.799999999999999 z M 27.691 10.8 C 25.759999999999998 10.8 23.945 11.382000000000001 22.224999999999998 12.448 L 23.543999999999997 14.422 C 24.549999999999997 13.790000000000001 25.862 13.336 27.122999999999998 13.336 C 28.755999999999997 13.336 29.826999999999998 14.131 29.826999999999998 15.346 L 29.826999999999998 16.518 C 28.930999999999997 16.078 27.845 15.616000000000001 25.927 15.651 C 23.967 15.693999999999999 21.642 16.837 21.642 19.423 C 21.642 22.107 23.96 23.4 25.927999999999997 23.4 C 27.531 23.4 28.981999999999996 22.74 29.827999999999996 22.043 L 29.827999999999996 23.102 L 33.06399999999999 23.102 L 33.06399999999999 15.346 C 33.077999999999996 11.894 30.497999999999994 10.8 27.690999999999992 10.8 z M 29.834 20.374000000000002 C 29.244 20.844 28.282 21.234 27.232 21.234 C 25.957 21.234 24.913999999999998 20.587000000000003 24.913999999999998 19.472 C 24.913999999999998 18.329 25.854 17.618000000000002 27.13 17.618000000000002 C 28.173 17.618000000000002 29.266 17.924000000000003 29.834 18.315 L 29.834 20.375 z M 49.295 11.4 L 52.902 11.4 L 52.902 23.4 L 49.295 23.4 z M 61.784 15.625 C 60.408 15.355 59.439 15.078 59.439 14.332 C 59.439 13.636000000000001 60.204 13.216000000000001 61.376 13.216000000000001 C 62.811 13.216000000000001 64.151 13.785 64.916 14.503 L 66.291 12.442 C 65.097 11.496 63.437 10.8 61.354 10.8 C 58.121 10.8 56.308 12.562000000000001 56.308 14.58 C 56.308 17.438 59.031 17.935 61.15 18.333 C 62.549 18.61 63.619 18.901999999999997 63.619 19.747 C 63.619 20.493 62.956 20.962 61.559 20.962 C 60.059 20.962 58.259 20.174 57.357 19.363 L 55.907 21.538 C 57.20399999999999 22.704 59.272 23.4 61.404999999999994 23.4 C 64.82 23.4 66.728 21.758 66.728 19.548 C 66.72099999999999 16.570999999999998 63.895999999999994 16.023 61.78399999999999 15.624999999999998 z" stroke-linecap="round" />
</g>
</g>
</g>
</svg>